<svg width="13" height="13" viewBox="0 0 13 13" fill="none" xmlns="http://www.w3.org/2000/svg">
<path d="M2.4375 0V5.6875C2.4375 5.90299 2.5231 6.10965 2.67548 6.26202C2.82785 6.4144 3.03451 6.5 3.25 6.5H9.75C9.96549 6.5 10.1722 6.4144 10.3245 6.26202C10.4769 6.10965 10.5625 5.90299 10.5625 5.6875V0H11.375C11.806 0 12.2193 0.171205 12.524 0.475951C12.8288 0.780698 13 1.19402 13 1.625V11.375C13 11.806 12.8288 12.2193 12.524 12.524C12.2193 12.8288 11.806 13 11.375 13H1.625C1.19402 13 0.780698 12.8288 0.475951 12.524C0.171205 12.2193 0 11.806 0 11.375V1.625C0 1.19402 0.171205 0.780698 0.475951 0.475951C0.780698 0.171205 1.19402 0 1.625 0L2.4375 0ZM7.3125 0H9.75V5.28125C9.75 5.38899 9.7072 5.49233 9.63101 5.56851C9.55483 5.6447 9.45149 5.6875 9.34375 5.6875H7.71875C7.61101 5.6875 7.50767 5.6447 7.43149 5.56851C7.3553 5.49233 7.3125 5.38899 7.3125 5.28125V0Z" fill="#9AABC6"/>
</svg>
