<svg width="16" height="16" viewBox="0 0 16 16" fill="none" xmlns="http://www.w3.org/2000/svg">
<g clip-path="url(#clip0_10929_80209)">
<path fill-rule="evenodd" clip-rule="evenodd" d="M7.89189 1.52018C7.72604 1.40586 7.50001 1.52458 7.50001 1.72602V2.77091C6.30074 2.87117 5.15535 3.33033 4.21594 4.09377C3.15752 4.95394 2.42373 6.14904 2.13551 7.48211C1.84729 8.81518 2.02185 10.2067 2.63041 11.4272C3.23896 12.6478 4.24521 13.6246 5.4833 14.1967C6.72139 14.7688 8.11745 14.902 9.44138 14.5743C10.7653 14.2467 11.9381 13.4778 12.7665 12.3943C13.5949 11.3108 14.0294 9.97744 13.9985 8.61392C13.9675 7.2504 13.473 5.93811 12.5963 4.89332L11.8272 5.53863C12.5572 6.4086 12.969 7.50132 12.9948 8.6367C13.0206 9.77207 12.6587 10.8823 11.969 11.7845C11.2792 12.6867 10.3026 13.327 9.20021 13.5998C8.0978 13.8726 6.93533 13.7617 5.9044 13.2854C4.87347 12.809 4.03559 11.9956 3.52885 10.9793C3.02212 9.96294 2.87677 8.80428 3.11676 7.69426C3.35676 6.58424 3.96777 5.58911 4.8491 4.87287C5.60945 4.25494 6.53186 3.87641 7.50001 3.77905V4.77407C7.50001 4.97551 7.72604 5.09423 7.89189 4.97991L10.1028 3.45588C10.2469 3.35651 10.2469 3.14358 10.1028 3.04421L7.89189 1.52018Z" fill="#4A5970"/>
</g>
<path fill-rule="evenodd" clip-rule="evenodd" d="M7.5 6H8.5V7V9H9H10H11V10H10H9H8.5H8H7.5V9V7V6Z" fill="#4A5970"/>
<defs>
<clipPath id="clip0_10929_80209">
<rect width="16" height="16" fill="white"/>
</clipPath>
</defs>
</svg>
