<svg width="77" height="20" viewBox="0 0 77 20" fill="none" xmlns="http://www.w3.org/2000/svg">
<g clip-path="url(#clip0_11358_69569)">
<path d="M9.97333 3L11.9698 7.37895L5.81117 17H1L9.97333 3Z" fill="#2B559F"/>
<path d="M16.7175 3L18.7139 7.37895L12.5553 17H7.74414L16.7175 3Z" fill="#2B559F"/>
<path d="M19.278 9.39999L16.8936 13.1544L19.2709 17H24.075L19.278 9.39999Z" fill="#489B71"/>
<path d="M38.2694 4.54385L37.9449 6.35438H34.9185L33.049 16.8807H30.8339L32.7034 6.35438H29.6699L29.9944 4.54385H38.2694Z" fill="#202F47"/>
<path d="M48.9702 4.54385C49.6828 4.51657 50.3957 4.59221 51.0865 4.76841C51.4894 4.8776 51.8397 5.12651 52.0742 5.47016C52.2833 5.8525 52.3833 6.28446 52.3634 6.71929C52.3312 7.48352 52.2369 8.2439 52.0812 8.99297L50.6703 16.9088H48.5116L49.7744 9.61753C49.8873 8.9649 49.9649 8.45964 50.0213 8.10174C50.0702 7.82112 50.0985 7.53733 50.106 7.25262C50.1113 7.06762 50.0777 6.88356 50.0072 6.71227C49.916 6.55921 49.7697 6.44634 49.598 6.39648C49.1813 6.30595 48.7543 6.27056 48.3282 6.29122H47.0514L45.1819 16.9017H42.9809L44.8504 6.29122H41.5841L39.7147 16.9017H37.5137L39.6935 4.54385H48.9702Z" fill="#202F47"/>
<path d="M59.6085 4.44561C60.3022 4.42608 60.9954 4.50164 61.6684 4.67017C62.1392 4.78358 62.5527 5.06279 62.8324 5.45613C63.1006 5.91502 63.2281 6.44189 63.1992 6.97192C63.1833 7.71889 63.103 8.46313 62.9594 9.19648L61.5908 16.9158H59.3757L60.2152 12.214H55.7638L54.9314 16.9158H52.7656L54.3388 8.10175C54.4251 7.58163 54.5477 7.0681 54.7056 6.5649C54.8201 6.20383 54.9864 5.86111 55.1994 5.54736C55.3827 5.28387 55.6239 5.06546 55.9049 4.90876C56.2613 4.72994 56.6451 4.61136 57.0407 4.55789C57.7117 4.46936 58.3885 4.43183 59.0653 4.44561H59.6085ZM56.0812 10.4175H60.5256L60.7584 9.1614C60.8703 8.56357 60.9387 7.95849 60.963 7.35087C60.98 7.1043 60.9183 6.85868 60.7866 6.64911C60.6537 6.48316 60.4664 6.36891 60.2575 6.32631C59.929 6.27092 59.5959 6.24742 59.2628 6.25613H58.8466C58.3944 6.23728 57.9421 6.28938 57.5063 6.41052C57.2065 6.49902 56.9534 6.70047 56.8008 6.97192C56.5893 7.44477 56.449 7.94608 56.3846 8.45964L56.0812 10.4175Z" fill="#202F47"/>
<path d="M71.4605 4.54386C71.7809 4.54236 72.1012 4.55876 72.4199 4.59298C72.6987 4.61299 72.9725 4.67694 73.2311 4.78245C73.4573 4.87768 73.6509 5.03613 73.7884 5.23859C73.9463 5.5005 74.0201 5.80405 74.0001 6.10877C73.9714 6.73337 73.8959 7.35497 73.7743 7.96842L73.4922 9.51929C73.4123 10.0577 73.2702 10.5852 73.0689 11.0912C72.913 11.4664 72.6714 11.8003 72.3634 12.0667C72.0687 12.3205 71.7145 12.4967 71.3335 12.5789C70.8341 12.6946 70.3224 12.7489 69.8097 12.7403H66.7057L65.965 16.9017H63.7852L65.9791 4.54386H71.4605ZM71.5451 7.96842C71.6195 7.61437 71.669 7.25561 71.6933 6.89473C71.7042 6.79722 71.6851 6.6987 71.6385 6.61223C71.5919 6.52577 71.5199 6.45542 71.4322 6.41052C71.1208 6.30928 70.7926 6.26877 70.4658 6.29122H67.8627L67.0443 10.993H69.5698C69.8968 11.0104 70.2232 10.9502 70.5222 10.8175C70.7668 10.69 70.9589 10.4815 71.0654 10.2281C71.2474 9.77818 71.3684 9.3062 71.4252 8.82456L71.5451 7.96842Z" fill="#202F47"/>
</g>
<defs>
<clipPath id="clip0_11358_69569">
<rect width="73" height="14" fill="white" transform="translate(1 3)"/>
</clipPath>
</defs>
</svg>
