<svg width="16" height="16" viewBox="0 0 16 16" fill="none" xmlns="http://www.w3.org/2000/svg">
<path d="M7 6.33333H11.1406V7.22222H7V6.33333ZM7 4.66667H11.1406V5.55556H7V4.66667ZM6 2H12V3H6V2ZM9 10.7778V9H10V11.6667H6V9H7V10.7778H9ZM6 9V9.88889H2C2 9.39797 2.39797 9 2.88889 9H3V4.77778C3 4.22549 3.44772 3.77778 4 3.77778V9H5V4.66667H4V3.77778H5V3C5 2.44771 5.44772 2 6 2V9ZM12 9V2C12.5523 2 13 2.44772 13 3V9H13.1111C13.602 9 14 9.39797 14 9.88889H10V9H12ZM13 13.3333V9.88889H14V13.2222C14 13.7745 13.5523 14.2222 13 14.2222H3C2.44772 14.2222 2 13.7745 2 13.2222V9.88889H3V13.3333H13Z" fill="#4A5970"/>
</svg>
