<svg width="16" height="16" viewBox="0 0 16 16" fill="none" xmlns="http://www.w3.org/2000/svg">
<g clip-path="url(#clip0_10929_80214)">
<path d="M9 2.5C9 3.05228 8.55228 3.5 8 3.5C7.44772 3.5 7 3.05228 7 2.5C7 1.94772 7.44772 1.5 8 1.5C8.55228 1.5 9 1.94772 9 2.5Z" fill="#4A5970"/>
<path d="M13.5 11.5C13.5 12.0523 13.0523 12.5 12.5 12.5C11.9477 12.5 11.5 12.0523 11.5 11.5C11.5 10.9477 11.9477 10.5 12.5 10.5C13.0523 10.5 13.5 10.9477 13.5 11.5Z" fill="#4A5970"/>
<path d="M4.5 11.5C4.5 12.0523 4.05228 12.5 3.5 12.5C2.94772 12.5 2.5 12.0523 2.5 11.5C2.5 10.9477 2.94772 10.5 3.5 10.5C4.05228 10.5 4.5 10.9477 4.5 11.5Z" fill="#4A5970"/>
<path fill-rule="evenodd" clip-rule="evenodd" d="M6 2.34131C3.66962 3.16498 2 5.38746 2 7.9999C2 8.63588 2.09895 9.24874 2.28229 9.82395L3.14868 9.215C3.05156 8.82601 3 8.41897 3 7.9999C3 5.94958 4.2341 4.1875 6 3.41594V2.34131ZM5.59517 12.3847L4.70157 13.0127C5.64799 13.6367 6.78159 13.9999 8 13.9999C9.16389 13.9999 10.2504 13.6685 11.1703 13.0949L10.265 12.4587C9.58501 12.8048 8.81529 12.9999 8 12.9999C7.1283 12.9999 6.3087 12.7768 5.59517 12.3847ZM14 7.9999C14 8.68762 13.8843 9.34833 13.6713 9.9636L12.8127 9.36017C12.9347 8.92768 13 8.47141 13 7.9999C13 5.94958 11.7659 4.1875 10 3.41594V2.34131C12.3304 3.16498 14 5.38746 14 7.9999Z" fill="#4A5970"/>
</g>
<defs>
<clipPath id="clip0_10929_80214">
<rect width="16" height="16" fill="white"/>
</clipPath>
</defs>
</svg>
