<svg width="38" height="39" viewBox="0 0 38 39" fill="none" xmlns="http://www.w3.org/2000/svg">
<path d="M30.4982 4H6.28998C5.95607 4 5.67015 4.23848 5.61214 4.56592L0.0106444 36.1718C-0.0636687 36.5911 0.260569 36.9754 0.688536 36.9754H14.0336L15.0912 36.6491H21.2886L22.1547 36.9754H32.4349C32.7688 36.9754 33.0546 36.7367 33.1127 36.4096L37.72 10.4127L30.4982 4H30.4982Z" fill="#0E73FF"/>
<path d="M30.1659 10.4053H37.7199L30.483 4L29.4868 9.60256C29.4122 10.0214 29.7371 10.4053 30.1659 10.4053" fill="#85B2F1"/>
<path d="M19.65 5.36401L18.2964 13.0263L5.10059 13.0489L10.8338 19.2235H17.1968L14.045 36.9753H22.1597L25.3152 19.2235H34.8963L35.2292 19.2161L19.65 5.36401Z" fill="white"/>
</svg>
