<svg width="38" height="39" viewBox="0 0 38 39" fill="none" xmlns="http://www.w3.org/2000/svg">
<path d="M20.0302 1.07541C17.4404 0.750434 14.5609 1.53038 12.2437 2.37125C6.69767 4.38204 2.33583 8.97233 0.746998 14.4238C0.137874 16.5158 -0.181596 18.746 0.108057 20.9111C0.453085 23.515 2.23786 27.4838 5.74351 26.0173C8.18853 24.9937 7.73701 22.6051 7.73275 20.5252C7.72423 16.9424 7.74979 13.1605 9.38548 9.86195C10.4035 7.80648 11.9455 5.99068 13.8112 4.58109C14.7355 3.88239 15.7578 3.24463 16.8398 2.79372C18.1219 2.26157 19.5276 1.98534 20.8566 1.58319C21.0525 1.52225 21.2357 1.42476 21.4359 1.37195C20.9844 1.23384 20.5116 1.13228 20.0302 1.07541Z" fill="#FDD905"/>
<path d="M37.5278 16.2335C37.0425 14.0539 36.2307 11.9914 35.0591 10.1065C33.8916 8.22588 32.4062 6.5533 30.6822 5.20136C28.9666 3.85376 27.0083 2.83114 24.9245 2.25483C23.9453 1.98618 22.9118 1.82585 21.9326 2.1725C20.0999 2.81814 18.8487 5.18403 19.8321 7.05594C20.556 8.43387 21.7192 8.89319 23.0122 9.59082C25.209 10.7781 27.4184 11.857 29.3515 13.482C30.2093 14.2013 31.0128 14.9986 31.7325 15.8739C33.4899 18.0101 34.6364 20.662 35.0674 23.4308C35.5444 26.49 34.9796 29.2849 34.0255 32.1794C34.8331 31.5121 35.352 30.5762 35.8248 29.6359C37.9212 25.5714 38.5321 20.7183 37.5278 16.2335Z" fill="#25A636"/>
<path d="M33.1219 27.782C33.0534 27.7016 32.985 27.6255 32.9123 27.5495C32.117 26.7314 30.9752 26.0474 29.8592 26.4542C28.3026 27.022 27.1524 28.1173 25.8225 29.0741C24.3558 30.1291 22.8121 31.0903 21.1615 31.7967C18.5872 32.892 15.7863 33.348 13.0154 33.1111C11.9977 33.0261 10.9971 32.8473 10.0221 32.5299C8.28598 31.9621 6.64394 31.0546 5.19433 29.9101C4.71112 29.5301 4.28351 29.1277 3.86872 28.6762C3.26151 28.0234 2.65002 27.3618 1.94873 26.8164C2.3122 28.1799 3.03487 29.4138 3.83451 30.5404C8.20474 37.2688 16.7998 40.4788 24.2831 38.3463C26.3698 37.7517 28.3796 36.8575 30.1628 35.5655C31.0608 34.9128 31.8818 34.1662 32.6258 33.3302C33.2416 32.6372 33.9643 31.8012 34.0797 30.8176C34.2037 29.7268 33.8146 28.6046 33.1219 27.782Z" fill="#E40212"/>
<path d="M27.7549 19.9609C27.423 19.1691 26.8697 18.4989 26.4669 18.067C26.6174 17.8241 26.7015 17.5722 26.7015 17.3068C26.7015 16.758 26.3518 16.2452 25.7586 15.8043C25.4576 12.9613 22.9833 10.7436 19.9778 10.7436C16.9723 10.7436 14.4979 12.9613 14.1925 15.8043C13.5949 16.2452 13.2497 16.758 13.2497 17.3068C13.2497 17.5677 13.3338 17.8241 13.4843 18.067C13.0815 18.4989 12.5282 19.1736 12.1962 19.9609C11.6606 21.2429 11.5632 22.372 11.8509 23.1143C12.1121 23.78 12.568 23.7215 12.9443 23.1053C13.0416 22.9478 13.1877 22.7274 13.3515 22.489C13.6303 23.2897 14.0951 24.0229 14.7104 24.6437C14.3341 24.7517 14.011 24.8776 13.8251 25.0216C13.1257 25.5749 13.0947 26.2137 13.6879 26.704C14.4536 27.3383 17.5521 27.6487 19.3492 26.7175C19.5573 26.7355 19.7653 26.7445 19.9733 26.7445C20.1991 26.7445 20.4204 26.7355 20.6417 26.7175C22.4388 27.6532 25.5417 27.3428 26.3075 26.7085C26.8962 26.2182 26.8697 25.5749 26.1703 25.0261C25.98 24.8776 25.6391 24.7472 25.2452 24.6392C25.856 24.0184 26.3164 23.2897 26.5908 22.4935C26.7546 22.7319 26.9006 22.9523 26.998 23.1098C27.3743 23.726 27.8302 23.7845 28.0958 23.1187C28.3879 22.372 28.2861 21.2384 27.7549 19.9609Z" fill="#0096D3"/>
</svg>
