<svg width="21" height="21" viewBox="0 0 21 21" fill="none" xmlns="http://www.w3.org/2000/svg">
<path fill-rule="evenodd" clip-rule="evenodd" d="M3.5293 3.33203C3.25315 3.33203 3.0293 3.55589 3.0293 3.83203V8.83203C3.0293 9.10817 3.25315 9.33203 3.5293 9.33203H16.5293C16.8054 9.33203 17.0293 9.10817 17.0293 8.83203V3.83203C17.0293 3.55589 16.8054 3.33203 16.5293 3.33203H3.5293ZM4.7293 4.83203C4.61884 4.83203 4.5293 4.92157 4.5293 5.03203V7.63203C4.5293 7.74249 4.61884 7.83203 4.7293 7.83203H15.3293C15.4398 7.83203 15.5293 7.74249 15.5293 7.63203V5.03203C15.5293 4.92157 15.4398 4.83203 15.3293 4.83203H4.7293Z" fill="#4A5970"/>
<path fill-rule="evenodd" clip-rule="evenodd" d="M3.5293 10.332C3.25315 10.332 3.0293 10.5559 3.0293 10.832V16.832C3.0293 17.1082 3.25315 17.332 3.5293 17.332H16.5293C16.8054 17.332 17.0293 17.1082 17.0293 16.832V10.832C17.0293 10.5559 16.8054 10.332 16.5293 10.332H3.5293ZM4.7293 11.832C4.61884 11.832 4.5293 11.9216 4.5293 12.032V15.632C4.5293 15.7425 4.61884 15.832 4.7293 15.832H15.3293C15.4398 15.832 15.5293 15.7425 15.5293 15.632V12.032C15.5293 11.9216 15.4398 11.832 15.3293 11.832H4.7293Z" fill="#4A5970"/>
<path d="M7.5293 6.33203C7.5293 6.88432 7.08158 7.33203 6.5293 7.33203C5.97701 7.33203 5.5293 6.88432 5.5293 6.33203C5.5293 5.77975 5.97701 5.33203 6.5293 5.33203C7.08158 5.33203 7.5293 5.77975 7.5293 6.33203Z" fill="#4A5970"/>
<path d="M7.5293 13.832C7.5293 14.3843 7.08158 14.832 6.5293 14.832C5.97701 14.832 5.5293 14.3843 5.5293 13.832C5.5293 13.2797 5.97701 12.832 6.5293 12.832C7.08158 12.832 7.5293 13.2797 7.5293 13.832Z" fill="#4A5970"/>
<circle cx="9.0293" cy="6.33203" r="1" fill="#4A5970"/>
<path d="M10.0293 13.832C10.0293 14.3843 9.58158 14.832 9.0293 14.832C8.47701 14.832 8.0293 14.3843 8.0293 13.832C8.0293 13.2797 8.47701 12.832 9.0293 12.832C9.58158 12.832 10.0293 13.2797 10.0293 13.832Z" fill="#4A5970"/>
</svg>
