<svg width="20" height="20" viewBox="0 0 20 20" fill="none" xmlns="http://www.w3.org/2000/svg">
<path fill-rule="evenodd" clip-rule="evenodd" d="M5.765 6.84991C5.58563 6.84093 5.41658 6.76335 5.2928 6.63322C5.16903 6.5031 5.1 6.33037 5.1 6.15078V4.92578H4.05C3.89285 4.92578 3.73933 4.96101 3.6 5.0271C3.49243 5.07812 3.39333 5.14753 3.30754 5.23332C3.11062 5.43023 3 5.6973 3 5.97578V15.7758C3 16.0543 3.11062 16.3213 3.30754 16.5182C3.50445 16.7152 3.77152 16.8258 4.05 16.8258H15.95C16.2285 16.8258 16.4955 16.7152 16.6925 16.5182C16.8894 16.3213 17 16.0543 17 15.7758V5.97578C17 5.6973 16.8894 5.43023 16.6925 5.23332C16.6067 5.14753 16.5076 5.07812 16.4 5.0271C16.2607 4.96101 16.1072 4.92578 15.95 4.92578H14.9V6.15078L14.8991 6.18578C14.8901 6.36515 14.8126 6.5342 14.6824 6.65798C14.5523 6.78175 14.3796 6.85078 14.2 6.85078H12.975L12.94 6.84991C12.7606 6.84093 12.5916 6.76335 12.4678 6.63322C12.344 6.5031 12.275 6.33037 12.275 6.15078V4.92578H7.725V6.15078L7.72412 6.18578C7.71515 6.36515 7.63757 6.5342 7.50744 6.65798C7.37732 6.78175 7.20459 6.85078 7.025 6.85078H5.8L5.765 6.84991ZM9.20775 6.42578C9.14456 6.92747 8.91006 7.39402 8.54124 7.74483C8.13228 8.13384 7.58943 8.35078 7.025 8.35078H5.78125L5.70875 8.34897L5.69 8.34803C5.25777 8.32639 4.84459 8.17801 4.5 7.92562V15.3258H15.5V7.92561C15.1248 8.20043 14.6699 8.35078 14.2 8.35078H12.9563L12.8837 8.34897L12.865 8.34803C12.3013 8.31981 11.77 8.076 11.3809 7.66703C11.0556 7.32501 10.8506 6.88937 10.7922 6.42578H9.20775Z" fill="#4A5970"/>
<path d="M16 8.5H4H3.5L4.5 7.5L8 7L10 6L11.5 6.5L14 7.5L16 6.5V8.5Z" fill="#4A5970"/>
<path d="M13.5873 3.34961C14.1123 3.34961 14.3748 3.61211 14.3748 4.13711V5.53711C14.3748 6.06211 14.1123 6.32461 13.5873 6.32461C13.0623 6.32461 12.7998 6.06211 12.7998 5.53711V4.13711C12.7998 3.61211 13.0623 3.34961 13.5873 3.34961Z" fill="#4A5970"/>
<path d="M6.4125 3.34961C6.9375 3.34961 7.2 3.61211 7.2 4.13711V5.53711C7.2 6.06211 6.9375 6.32461 6.4125 6.32461C5.8875 6.32461 5.625 6.06211 5.625 5.53711V4.13711C5.625 3.61211 5.8875 3.34961 6.4125 3.34961Z" fill="#4A5970"/>
<path d="M12.9199 9.19419C13.0827 9.03824 13.2995 8.95118 13.525 8.95117C13.7571 8.95117 13.9796 9.04336 14.1437 9.20745C14.3078 9.37155 14.4 9.59411 14.4 9.82617V13.6762L14.3991 13.7141C14.3889 13.9425 14.2897 14.1578 14.1228 14.314C13.9559 14.4701 13.7345 14.5548 13.506 14.5498C13.2775 14.5449 13.06 14.4507 12.9 14.2874C12.74 14.1241 12.6503 13.9048 12.65 13.6762V9.82617L12.6509 9.7882C12.6607 9.56293 12.757 9.35013 12.9199 9.19419Z" fill="#4A5970"/>
<path d="M9.59489 9.89419C9.75775 9.73824 9.97452 9.65118 10.2 9.65117C10.4321 9.65117 10.6546 9.74336 10.8187 9.90745C10.9828 10.0715 11.075 10.2941 11.075 10.5262V13.6762L11.0741 13.7141C11.0639 13.9425 10.9647 14.1578 10.7978 14.314C10.6309 14.4701 10.4095 14.5548 10.181 14.5498C9.95248 14.5449 9.73497 14.4507 9.575 14.2874C9.41503 14.1241 9.3253 13.9048 9.325 13.6762V10.5262L9.32588 10.4882C9.33566 10.2629 9.43203 10.0501 9.59489 9.89419Z" fill="#4A5970"/>
<path d="M6.26989 11.4692C6.43275 11.3132 6.64952 11.2262 6.875 11.2262C7.10706 11.2262 7.32962 11.3184 7.49372 11.4825C7.65781 11.6465 7.75 11.8691 7.75 12.1012V13.6762L7.74912 13.7141C7.73891 13.9425 7.63974 14.1578 7.47283 14.314C7.30593 14.4701 7.08453 14.5548 6.85601 14.5498C6.62748 14.5449 6.40997 14.4507 6.25 14.2874C6.09003 14.1241 6.0003 13.9048 6 13.6762V12.1012L6.00087 12.0632C6.01066 11.8379 6.10703 11.6251 6.26989 11.4692Z" fill="#4A5970"/>
</svg>
