<svg width="20" height="20" viewBox="0 0 20 20" fill="none" xmlns="http://www.w3.org/2000/svg">
<path fill-rule="evenodd" clip-rule="evenodd" d="M16.5001 16.9981L3.50007 16.9999C3.2239 16.9999 3 16.7761 3 16.4999V3.50182C3 3.22572 3.2238 3.00188 3.4999 3.00182L12.8333 3C12.9415 2.99998 13.0468 3.03507 13.1334 3.1L16.8 5.84997C16.9259 5.94439 17 6.09259 17 6.24997V16.4981C17 16.7742 16.7762 16.998 16.5001 16.9981ZM15.2971 15.498L4.69711 15.4999C4.58663 15.5 4.49707 15.4104 4.49707 15.2999V4.70186C4.49707 4.59142 4.58657 4.50189 4.69701 4.50186L10.5 4.49997H12.6849C12.7272 4.49997 12.7684 4.51338 12.8026 4.53828L15.4148 6.44006C15.4665 6.4777 15.4971 6.5378 15.4971 6.60175V15.298C15.4971 15.4085 15.4075 15.498 15.2971 15.498Z" fill="#4A5970"/>
<path d="M6.00012 13.5L6.00023 13.037C6.0003 12.7609 6.22414 12.5371 6.50023 12.5371H13.473C13.7492 12.5371 13.9731 12.761 13.973 13.0372L13.9729 13.5002C13.9729 13.7763 13.749 14.0001 13.4729 14.0001H6.50012C6.22393 14.0001 6.00005 13.7761 6.00012 13.5Z" fill="#4A5970"/>
<path fill-rule="evenodd" clip-rule="evenodd" d="M7.35453 8.43844C7.15927 8.6337 7.15927 8.95028 7.35453 9.14555L8.3515 10.1425L8.35053 10.1435L9.05763 10.8506C9.2529 11.0459 9.56948 11.0459 9.76474 10.8506L12.8515 7.76388C13.0467 7.56862 13.0467 7.25204 12.8515 7.05678L12.4979 6.70322C12.3026 6.50796 11.9861 6.50796 11.7908 6.70322L9.41216 9.08186L8.41519 8.08489C8.21993 7.88962 7.90335 7.88962 7.70808 8.08489L7.35453 8.43844Z" fill="#4A5970"/>
</svg>
