<?xml version="1.0" encoding="UTF-8"?>
<svg width="82px" height="82px" viewBox="0 0 82 82" version="1.1" xmlns="http://www.w3.org/2000/svg" xmlns:xlink="http://www.w3.org/1999/xlink">
    <!-- Generator: Sketch 62 (91390) - https://sketch.com -->
    <title>在线服务调用量</title>
    <desc>Created with Sketch.</desc>
    <defs>
        <circle id="path-1" cx="41" cy="41" r="41"></circle>
        <linearGradient x1="66.3683885%" y1="35.1337422%" x2="50%" y2="75.0123066%" id="linearGradient-3">
            <stop stop-color="#73ABFF" offset="0%"></stop>
            <stop stop-color="#1665E4" offset="100%"></stop>
        </linearGradient>
        <linearGradient x1="50%" y1="146.241534%" x2="50%" y2="0%" id="linearGradient-4">
            <stop stop-color="#0052D9" offset="0%"></stop>
            <stop stop-color="#4C93FF" offset="100%"></stop>
        </linearGradient>
        <path d="M28.6655547,19 C36.3121185,19 42.7386146,24.3656939 44.6593155,31.6512805 C45.6740254,31.4136391 46.7249749,31.2760572 47.8061241,31.2760572 C55.6459661,31.2760572 62.0060228,37.8549732 62,45.9723049 C62,54.0958904 55.6459661,61 47.8000842,61 C39.3543019,63 32.9761254,64 28.6655547,64 C24.8154956,64 18.9527272,63 11.0772497,61 C4.95879064,61 0,55.8656939 0,49.530673 C0,43.1956522 4.96483058,38.061346 11.0832897,38.0675998 C11.451726,38.0675998 11.8201623,38.0863609 12.1825587,38.1238833 C12.1100795,37.4860036 12.0677999,36.8356164 12.0677999,36.1789756 C12.0677999,26.6920786 19.4969259,19 28.6655547,19 Z M18.8695639,41.826087 C16.3882848,41.826087 14.3768106,43.8700044 14.3768106,46.3913043 C14.3768106,48.9126043 16.3882848,50.9565217 18.8695639,50.9565217 C21.3508431,50.9565217 23.3623172,48.9126043 23.3623172,46.3913043 C23.3623172,43.8700044 21.3508431,41.826087 18.8695639,41.826087 Z M30.5507225,41.826087 C28.0694434,41.826087 26.0579692,43.8700044 26.0579692,46.3913043 C26.0579692,48.9126043 28.0694434,50.9565217 30.5507225,50.9565217 C33.0320017,50.9565217 35.0434758,48.9126043 35.0434758,46.3913043 C35.0434758,43.8700044 33.0320017,41.826087 30.5507225,41.826087 Z M43.1304318,41.826087 C40.6491527,41.826087 38.6376785,43.8700044 38.6376785,46.3913043 C38.6376785,48.9126043 40.6491527,50.9565217 43.1304318,50.9565217 C45.6117109,50.9565217 47.6231851,48.9126043 47.6231851,46.3913043 C47.6231851,43.8700044 45.6117109,41.826087 43.1304318,41.826087 Z" id="path-5"></path>
        <filter x="-6.5%" y="-4.4%" width="112.9%" height="117.8%" filterUnits="objectBoundingBox" id="filter-6">
            <feGaussianBlur stdDeviation="0" in="SourceGraphic"></feGaussianBlur>
        </filter>
        <filter x="-11.3%" y="-11.1%" width="122.6%" height="131.1%" filterUnits="objectBoundingBox" id="filter-7">
            <feOffset dx="0" dy="2" in="SourceAlpha" result="shadowOffsetOuter1"></feOffset>
            <feGaussianBlur stdDeviation="2" in="shadowOffsetOuter1" result="shadowBlurOuter1"></feGaussianBlur>
            <feColorMatrix values="0 0 0 0 0.47016539   0 0 0 0 0.672468722   0 0 0 0 0.988394475  0 0 0 0.637347028 0" type="matrix" in="shadowBlurOuter1"></feColorMatrix>
        </filter>
        <linearGradient x1="50%" y1="0%" x2="50%" y2="100%" id="linearGradient-8">
            <stop stop-color="#B6D3FF" offset="0%"></stop>
            <stop stop-color="#94BFFF" offset="100%"></stop>
        </linearGradient>
        <linearGradient x1="50%" y1="0%" x2="50%" y2="100%" id="linearGradient-9">
            <stop stop-color="#B6D3FF" offset="0%"></stop>
            <stop stop-color="#94BFFF" offset="100%"></stop>
        </linearGradient>
    </defs>
    <g id="在线服务调用量" stroke="none" stroke-width="1" fill="none" fill-rule="evenodd">
        <g id="服务调用量">
            <g id="形状结合备份-+-形状结合-蒙版备份">
                <mask id="mask-2" fill="white">
                    <use xlink:href="#path-1"></use>
                </mask>
                <use id="蒙版" fill="#F5F9F9" xlink:href="#path-1"></use>
                <g id="编组" mask="url(#mask-2)">
                    <g transform="translate(9.000000, 18.000000)">
                        <path d="M59.3847938,31.599464 C58.6524023,31.599464 57.9404688,31.6846337 57.2530847,31.8317451 C55.9519647,27.32162 51.5985319,24 46.4186015,24 C40.207595,24 35.1749612,28.761763 35.1749612,34.6346039 C35.1749612,35.0410959 35.2036022,35.4437165 35.2527011,35.8385944 C35.0072067,35.8153663 34.7576208,35.8037522 34.5080349,35.8037522 C30.3632723,35.7998809 29.0053286,33.9851922 29.0053286,37.9068718 C29.0053286,41.8285513 31.1079385,35.8385944 35.2527011,35.8385944 L60.4004634,52.287583 C65.7154157,52.287583 69.0001667,45.7260274 69.0001667,40.6971412 C69.0040799,35.6721263 64.6956544,31.599464 59.3847938,31.599464 Z" id="形状结合" fill="url(#linearGradient-3)" fill-rule="nonzero" opacity="0.505812872"></path>
                        <g id="形状结合" fill="none" fill-rule="nonzero" filter="url(#filter-6)">
                            <use fill="black" fill-opacity="1" filter="url(#filter-7)" xlink:href="#path-5"></use>
                            <use fill="url(#linearGradient-4)" xlink:href="#path-5"></use>
                        </g>
                        <path d="M49.5303068,10.2460287 C53.2467249,11.2964647 55.5546859,14.2072276 56.4541897,18.9783175 C56.5965647,19.8320144 56.2041384,20.0875245 55.8217852,20.2141146 C55.5712343,20.2847 54.8151603,20.6126155 54.451606,19.6857829 C54.0880518,18.7589503 53.2632576,13.0383916 48.643311,12.1249142 C48.530318,12.2252319 47.9585555,13.3934851 47.8889153,13.5449566 C47.2374418,14.0326163 45.3792316,10.6145908 45.5881921,9.81218205 C45.7971527,9.00977329 49.6309611,8.20106841 50.1658609,8.7315041 C49.8467119,9.51499957 49.6348605,10.0198411 49.5303068,10.2460287 Z" id="路径-16" fill="url(#linearGradient-8)" fill-rule="evenodd" transform="translate(51.027977, 14.444739) scale(-1, -1) rotate(-36.000000) translate(-51.027977, -14.444739) "></path>
                        <path d="M49.7850998,4.01026107 C53.8104022,5.14058285 56.3095702,8.27500218 57.2826039,13.4135191 C57.4365905,14.3329654 57.0114484,14.6082792 56.5972526,14.7447346 C56.325839,14.8208315 55.5067775,15.1742349 55.1132316,14.17608 C54.7196857,13.1779252 53.8278355,7.01674701 48.8238025,6.03419779 C48.7013822,6.14227896 48.0817361,7.40072791 48.0062612,7.56389247 C47.3004585,8.08932069 45.2885944,4.4084175 45.5151572,3.54411098 C45.7417199,2.67980446 49.8946849,1.8076766 50.4739387,2.37883696 C50.128026,3.22280425 49.8984131,3.76661229 49.7850998,4.01026107 Z" id="路径-16备份" fill="url(#linearGradient-9)" fill-rule="evenodd" transform="translate(51.406166, 8.531743) scale(-1, -1) rotate(147.000000) translate(-51.406166, -8.531743) "></path>
                    </g>
                </g>
            </g>
        </g>
    </g>
</svg>