<?xml version="1.0" encoding="UTF-8"?>
<svg width="37px" height="31px" viewBox="0 0 37 31" version="1.1" xmlns="http://www.w3.org/2000/svg" xmlns:xlink="http://www.w3.org/1999/xlink">
    <title>table_select_icon备份</title>
    <g id="页面-1" stroke="none" stroke-width="1" fill="none" fill-rule="evenodd">
        <g id="table_select_icon备份">
            <path d="M34,0.5 L0.5,0.5 L0.5,30.5 L34,30.5 C34.6903559,30.5 35.3153559,30.220178 35.767767,29.767767 C36.220178,29.3153559 36.5,28.6903559 36.5,28 L36.5,3 C36.5,2.30964406 36.220178,1.68464406 35.767767,1.23223305 C35.3153559,0.779822031 34.6903559,0.5 34,0.5 Z" id="矩形备份-32-copy-9" stroke="#0053D9" fill-opacity="0.99" fill="#FFFFFF"></path>
            <g id="表格-copy-4" transform="translate(10.000000, 7.000000)" fill="#0053D9" fill-rule="nonzero">
                <path d="M2.12500017,0 L14.8750001,0 L14.875,0 C16.0486043,0 17.0000001,0.951394043 17.0000001,2.125 L17.0000001,5.3125 L9.28810913e-08,5.3125 L9.28810913e-08,2.125 L9.28810913e-08,2.12500032 C9.28810913e-08,0.951396024 0.951394131,0 2.12500008,0 L2.12500017,0 Z M5.84375015,13.8125 L5.84375015,15.9375 L11.1562501,15.9375 L11.1562501,13.8125 L5.84375015,13.8125 Z M5.84375015,12.75 L11.1562501,12.75 L11.1562501,9.5625 L5.84375015,9.5625 L5.84375015,12.75 Z M15.9375001,13.8125 L12.2187501,13.8125 L12.2187501,15.9375 L14.8750001,15.9375 L14.8750001,15.9375 C15.4618022,15.9375 15.9375001,15.4618021 15.9375001,14.875 L15.9375001,13.8125 L15.9375001,13.8125 Z M15.9375001,12.75 L15.9375001,9.5625 L12.2187501,9.5625 L12.2187501,12.75 L15.9375001,12.75 Z M1.06250018,13.8125 L1.06250018,14.875 L1.06250018,14.8750002 C1.06250018,15.4618023 1.53819803,15.9375002 2.12500017,15.9375002 L4.78125016,15.9375002 L4.78125016,13.8125 L1.06250018,13.8125 L1.06250018,13.8125 Z M1.06250018,12.75 L4.78125016,12.75 L4.78125016,9.5625 L1.06250018,9.5625 L1.06250018,12.75 Z M11.1562501,5.3125 L5.84375015,5.3125 L5.84375015,8.5 L11.1562501,8.5 L11.1562501,5.3125 Z M12.2187501,5.3125 L12.2187501,8.5 L15.9375001,8.5 L15.9375001,5.3125 L12.2187501,5.3125 Z M4.78125016,5.3125 L1.06250018,5.3125 L1.06250018,8.5 L4.78125016,8.5 L4.78125016,5.3125 Z M2.12500017,0 L14.8750001,0 L14.875,0 C16.0486043,0 17,0.951394043 17,2.125 L17,14.875 L17,14.875 C17,16.0486043 16.0486043,17 14.875,17 L2.12500008,17 L2.12499999,17 C0.951395698,17 0,16.0486043 0,14.875 C0,14.875 0,14.875 0,14.875 L0,2.125 L0,2.12500032 C0,0.951396024 0.951394038,0 2.12499999,0 L2.12500017,0 Z M1.06250013,4.25 L15.9375001,4.25 L15.9375001,2.125 L15.9375001,2.125 C15.9375001,1.53819785 15.4618022,1.0625 14.8750001,1.0625 L2.12500017,1.0625 L2.12500013,1.0625 C1.53819798,1.0625 1.06250013,1.53819785 1.06250013,2.125 C1.06250013,2.125 1.06250013,2.125 1.06250013,2.125 L1.06250013,4.25 L1.06250013,4.25 Z" id="形状"></path>
            </g>
        </g>
    </g>
</svg>