<?xml version="1.0" encoding="UTF-8"?>
<svg width="32px" height="32px" viewBox="0 0 32 32" version="1.1" xmlns="http://www.w3.org/2000/svg" xmlns:xlink="http://www.w3.org/1999/xlink">
    <title>删除备份</title>
    <g id="页面-1" stroke="none" stroke-width="1" fill="none" fill-rule="evenodd">
        <g id="人群组合备份-2" transform="translate(-1162.000000, -207.000000)">
            <g id="删除备份" transform="translate(1162.000000, 207.000000)">
                <rect id="矩形备份-33" stroke="#BEC3D0" fill="#F2F4F7" x="0.5" y="0.5" width="31" height="31" rx="3"></rect>
                <g id="删-除" transform="translate(9.000000, 8.000000)" fill="#B4BBCB" fill-rule="nonzero" stroke="#F2F4F7" stroke-width="0.3">
                    <path d="M14.2219743,2.92805005 L10.6330173,2.92805005 C10.5828221,1.29301356 9.25264919,0 7.61293921,0 C5.97322922,0 4.64305633,1.29301356 4.58449526,2.91970803 L0.769659788,2.91970803 C0.343000558,2.91970803 0,3.26173097 0,3.68717414 C0,4.11261731 0.343000558,4.45464025 0.769659788,4.45464025 L1.62297825,4.45464025 L1.62297825,13.0636079 C1.62297825,14.6819604 2.71890686,16 4.08254322,16 L11.0011154,16 C12.3563859,16 13.4606804,14.6903024 13.4606804,13.0636079 L13.4606804,4.4713243 L14.2303402,4.4713243 C14.6569994,4.4713243 15,4.12930136 15,3.70385819 C15,3.27841502 14.6486336,2.92805005 14.2219743,2.92805005 Z M7.61293921,1.44316997 C8.4578918,1.44316997 9.13552705,2.09384776 9.18572225,2.91970803 L6.0317903,2.91970803 C6.09035137,2.09384776 6.76798661,1.44316997 7.61293921,1.44316997 Z M12.0050195,13.080292 C12.0050195,13.9562044 11.4779699,14.5818561 10.9927496,14.5818561 L4.07417736,14.5818561 L4.07417736,14.5735141 C3.58895706,14.5735141 3.06190742,13.9562044 3.06190742,13.0719499 L3.06190742,4.4713243 L12.0050195,4.4713243 L12.0050195,13.080292 L12.0050195,13.080292 Z M9.8884551,12.721585 C10.2398215,12.721585 10.5326269,12.37122 10.5326269,11.9290928 L10.5326269,7.40771637 C10.5326269,6.96558916 10.2481874,6.61522419 9.8884551,6.61522419 C9.53708868,6.61522419 9.24428332,6.96558916 9.24428332,7.40771637 L9.24428332,11.9290928 C9.24428332,12.362878 9.52035694,12.721585 9.8884551,12.721585 Z M7.437256,12.721585 C7.78862242,12.721585 8.08142777,12.37122 8.08142777,11.9290928 L8.08142777,7.40771637 C8.08142777,6.96558916 7.79698829,6.61522419 7.437256,6.61522419 C7.08588957,6.61522419 6.79308422,6.96558916 6.79308422,7.40771637 L6.79308422,11.9290928 C6.79308422,12.362878 7.08588957,12.721585 7.437256,12.721585 Z M5.1115449,12.721585 C5.46291132,12.721585 5.75571668,12.37122 5.75571668,11.9290928 L5.75571668,7.40771637 C5.75571668,6.96558916 5.47127719,6.61522419 5.1115449,6.61522419 C4.76017847,6.61522419 4.46737312,6.96558916 4.46737312,7.40771637 L4.46737312,11.9290928 C4.46737312,12.362878 4.7518126,12.721585 5.1115449,12.721585 Z" id="形状"></path>
                </g>
            </g>
        </g>
    </g>
</svg>