<?xml version="1.0" encoding="UTF-8"?>
<svg width="25px" height="25px" viewBox="0 0 25 25" version="1.1" xmlns="http://www.w3.org/2000/svg" xmlns:xlink="http://www.w3.org/1999/xlink">
    <title>view_icon</title>
    <g id="页面-1" stroke="none" stroke-width="1" fill="none" fill-rule="evenodd" opacity="0.683477493">
        <g id="数据市场-最热榜单备份-8" transform="translate(-340.000000, -202.000000)" fill="#8B93A8" fill-rule="nonzero">
            <g id="view_icon" transform="translate(340.000000, 202.000000)">
                <path d="M12.4991061,25 L12.4991056,25 C5.59606002,25 0,19.4035688 0,12.5 C0,5.59646047 5.59603073,0 12.4991056,0 C19.4021511,0 24.9982112,5.59643117 24.9982112,12.5 L24.9982112,12.5 C24.9982112,19.4035395 19.4021804,25 12.4991056,25 C12.4991056,25 12.4991056,25 12.4991056,25 L12.4991061,25 Z M12.4991061,1.87502783 L12.4991057,1.87502783 C6.63151254,1.87502783 1.87486445,6.63198701 1.87486445,12.5000293 C1.87486445,18.3680423 6.63148325,23.1250308 12.4991057,23.1250308 C18.3666988,23.1250308 23.1233469,18.3680716 23.1233469,12.5000293 L23.1233469,12.5000298 C23.1233469,6.63201677 18.3667281,1.87502783 12.4991057,1.87502783 L12.4991061,1.87502783 Z M24.0607795,25 L24.0607795,25 C23.8123773,24.9991005 23.574346,24.9002885 23.3983284,24.7250001 L20.2735447,21.5999928 L20.2735448,21.5999929 C19.9205957,21.2211904 19.9415356,20.6279673 20.3203124,20.2749929 C20.6803244,19.9395059 21.2384364,19.9395059 21.5984485,20.2749928 L24.7232322,23.4000001 L24.7232322,23.4000001 C25.0890944,23.76145 25.0926918,24.3510726 24.7312697,24.716961 C24.7286069,24.7196567 24.7259277,24.7223361 24.7232322,24.7249991 L24.7232322,24.7249991 C24.5472126,24.9002875 24.309183,24.9990993 24.0607811,25 L24.0607795,25 Z" id="形状"></path>
            </g>
        </g>
    </g>
</svg>