<?xml version="1.0" encoding="UTF-8"?>
<svg width="17px" height="17px" viewBox="0 0 17 17" version="1.1" xmlns="http://www.w3.org/2000/svg" xmlns:xlink="http://www.w3.org/1999/xlink">
    <title>详情页-38</title>
    <g id="页面-1" stroke="none" stroke-width="1" fill="none" fill-rule="evenodd">
        <g id="EPC看板" transform="translate(-765.000000, -162.000000)" fill-rule="nonzero">
            <g id="详情页-38" transform="translate(765.000000, 162.000000)">
                <rect id="矩形" fill="#000000" opacity="0" x="0" y="0.0410903173" width="17" height="16.9585028"></rect>
                <path d="M13.3103448,11.5130187 C13.7126437,11.5130187 14,11.87214 14,12.2312612 C14,12.650236 13.6551724,12.9495037 13.3103448,12.9495037 L7.5632184,12.9495037 C7.16091955,12.9495037 6.87356322,12.5903824 6.87356322,12.2312612 C6.87356322,11.8122864 7.21839081,11.5130187 7.5632184,11.5130187 L13.3103448,11.5130187 Z M4.68965517,11.5130187 C4.91954022,11.5130187 5.20689655,11.6327258 5.32183909,11.87214 C5.43678162,12.1115541 5.43678162,12.4108218 5.32183909,12.650236 C5.20689655,12.8896501 4.9770115,13.0093572 4.68965517,13.0093572 C4.28735633,13.0093572 4,12.650236 4,12.2911147 C4,11.87214 4.28735633,11.5130187 4.68965517,11.5130187 Z M13.3103448,7.74224573 C13.7126437,7.74224573 14,8.10136697 14,8.52034174 C14,8.93931651 13.6551724,9.23858421 13.3103448,9.23858421 L7.5632184,9.23858421 C7.16091955,9.23858421 6.87356322,8.87946297 6.87356322,8.52034174 C6.87356322,8.10136697 7.21839081,7.74224573 7.5632184,7.74224573 L13.3103448,7.74224573 Z M4.68965517,7.74224573 C4.91954022,7.74224573 5.20689655,7.86195282 5.32183909,8.10136697 C5.43678162,8.34078112 5.43678162,8.64004882 5.32183909,8.81960944 C5.20689655,9.05902359 4.9770115,9.17873068 4.68965517,9.17873068 C4.28735633,9.17873068 4,8.81960944 4,8.4604882 C4,8.10136697 4.28735633,7.74224573 4.68965517,7.74224573 L4.68965517,7.74224573 Z M4.68965517,4.03132628 C4.91954022,4.03132628 5.20689655,4.15103337 5.32183909,4.39044752 C5.43678162,4.62986167 5.43678162,4.92912937 5.32183909,5.16854352 C5.20689655,5.40795768 4.91954024,5.52766476 4.68965517,5.52766476 C4.28735633,5.52766476 4,5.16854352 4,4.80942229 C4,4.39044752 4.28735633,4.03132628 4.68965517,4.03132628 L4.68965517,4.03132628 Z M13.3103448,4.03132628 C13.7126437,4.03132628 14,4.39044752 14,4.74956875 C14,5.16854352 13.6551724,5.46781123 13.3103448,5.46781123 L7.5632184,5.46781123 C7.16091955,5.46781123 6.87356322,5.10868999 6.87356322,4.74956875 C6.87356322,4.33059398 7.21839081,4.03132628 7.5632184,4.03132628 L13.3103448,4.03132628 L13.3103448,4.03132628 Z" id="形状" fill="#BEC3D0"></path>
                <path d="M14.7142857,16.9995932 L3.2857143,16.9995932 C2.02857144,16.9995932 1,15.982083 1,14.7384595 L1,2.30222402 C1,1.05860049 2.02857143,0.0410903173 3.2857143,0.0410903173 L14.7142857,0.0410903173 C15.9714286,0.0410903173 17,1.05860049 17,2.30222402 L17,14.7384595 C17,15.982083 15.9714286,16.9995932 14.7142857,16.9995932 Z M3.2857143,1.22818552 C2.71428571,1.22818552 2.2,1.7369406 2.2,2.30222402 L2.2,14.7384595 C2.2,15.3037429 2.71428571,15.812498 3.2857143,15.812498 L14.7142857,15.812498 C15.3428571,15.812498 15.8,15.3037429 15.8,14.7384595 L15.8,2.30222402 C15.8,1.7369406 15.2857143,1.22818552 14.7142857,1.22818552 L3.2857143,1.22818552 Z" id="形状" fill="#BEC3D0"></path>
            </g>
        </g>
    </g>
</svg>