<svg width="24" height="28" viewBox="0 0 24 28" fill="none" xmlns="http://www.w3.org/2000/svg">
<path d="M11.8179 13.9395L4.24219 18.5758V27.5758L11.8179 24.0304L19.2422 27.5758V18.5758L11.8179 13.9395Z" fill="url(#paint0_linear_4594_55710)"/>
<path fill-rule="evenodd" clip-rule="evenodd" d="M6.96973 26.2995V16.9067L11.8182 13.9395L16.3637 16.778V26.201L11.8182 24.0304L6.96973 26.2995Z" fill="url(#paint1_linear_4594_55710)"/>
<path d="M11.8182 0.605469L22.053 6.36304V17.8782L11.8182 23.6358L1.58334 17.8782V6.36304L11.8182 0.605469Z" fill="url(#paint2_linear_4594_55710)"/>
<path d="M11.8182 0L22.053 5.75758V17.2727L11.8182 23.0303L1.58334 17.2727V5.75758L11.8182 0Z" fill="url(#paint3_linear_4594_55710)"/>
<path opacity="0.5" d="M11.8181 2.12109L20.2159 6.81806V16.212L11.8181 20.909L3.42024 16.212V6.81806L11.8181 2.12109Z" fill="url(#paint4_linear_4594_55710)"/>
<g opacity="0.3">
<path d="M11.8945 13.9395L4.24219 17.9475V25.7277L11.8945 22.6627L19.3937 25.7277V17.9475L11.8945 13.9395Z" fill="url(#paint5_linear_4594_55710)"/>
<path fill-rule="evenodd" clip-rule="evenodd" d="M6.96973 26.3637V16.9221L11.8182 13.9395L16.3637 16.7928V26.2648L11.8182 24.0828L6.96973 26.3637Z" fill="url(#paint6_linear_4594_55710)"/>
</g>
<path d="M6.51468 5L3.48438 6.81818L11.6662 14.0909L13.3329 11.2121L6.51468 5Z" fill="url(#paint7_linear_4594_55710)"/>
<path d="M11.5843 6.96875C11.2726 7.29767 10.883 7.60028 10.4155 7.88972C9.94796 8.15286 9.5064 8.33706 9.09082 8.44231V9.9685C9.94796 9.71852 10.6493 9.33697 11.2077 8.82386V16.3627H12.7272V6.96875H11.5843Z" fill="#D38D20"/>
<defs>
<linearGradient id="paint0_linear_4594_55710" x1="4.84825" y1="20.894" x2="17.2708" y2="21.2307" gradientUnits="userSpaceOnUse">
<stop stop-color="#EAB24C"/>
<stop offset="1" stop-color="#E9A342"/>
</linearGradient>
<linearGradient id="paint1_linear_4594_55710" x1="15.6061" y1="21.303" x2="6.97222" y2="20.9664" gradientUnits="userSpaceOnUse">
<stop stop-color="#EAAC3F"/>
<stop offset="1" stop-color="#EFCE73"/>
</linearGradient>
<linearGradient id="paint2_linear_4594_55710" x1="11.8182" y1="0.605469" x2="11.8182" y2="23.6358" gradientUnits="userSpaceOnUse">
<stop stop-color="#D4A74A"/>
<stop offset="1" stop-color="#DA8D36"/>
</linearGradient>
<linearGradient id="paint3_linear_4594_55710" x1="11.8182" y1="0" x2="11.8182" y2="23.0303" gradientUnits="userSpaceOnUse">
<stop stop-color="#F1E096"/>
<stop offset="1" stop-color="#EDD17B"/>
</linearGradient>
<linearGradient id="paint4_linear_4594_55710" x1="11.8181" y1="2.12109" x2="11.8181" y2="20.909" gradientUnits="userSpaceOnUse">
<stop stop-color="white"/>
<stop offset="1" stop-color="#FFF3C2"/>
</linearGradient>
<linearGradient id="paint5_linear_4594_55710" x1="4.85437" y1="19.9514" x2="17.399" y2="20.3487" gradientUnits="userSpaceOnUse">
<stop stop-color="#EAB24C"/>
<stop offset="1" stop-color="#E9A342"/>
</linearGradient>
<linearGradient id="paint6_linear_4594_55710" x1="15.6061" y1="21.3413" x2="6.97208" y2="21.0064" gradientUnits="userSpaceOnUse">
<stop stop-color="#EAAC3F"/>
<stop offset="1" stop-color="#EFCE73"/>
</linearGradient>
<linearGradient id="paint7_linear_4594_55710" x1="4.84801" y1="6.66667" x2="12.5753" y2="12.7273" gradientUnits="userSpaceOnUse">
<stop stop-color="white" stop-opacity="0"/>
<stop offset="1" stop-color="white" stop-opacity="0.61"/>
</linearGradient>
</defs>
</svg>
