<svg width="16" height="16" viewBox="0 0 16 16" fill="none" xmlns="http://www.w3.org/2000/svg">
<path d="M6.75 8C6.75 8.33152 6.8817 8.64946 7.11612 8.88388C7.35054 9.1183 7.66848 9.25 8 9.25C8.33152 9.25 8.64946 9.1183 8.88388 8.88388C9.1183 8.64946 9.25 8.33152 9.25 8C9.25 7.66848 9.1183 7.35054 8.88388 7.11612C8.64946 6.8817 8.33152 6.75 8 6.75C7.66848 6.75 7.35054 6.8817 7.11612 7.11612C6.8817 7.35054 6.75 7.66848 6.75 8Z" fill="#4A5970"/>
<path d="M15 7.5H14.4745C14.2305 4.315 11.685 1.7695 8.5 1.5255V1C8.5 0.867392 8.44732 0.740215 8.35355 0.646447C8.25979 0.552678 8.13261 0.5 8 0.5C7.86739 0.5 7.74021 0.552678 7.64645 0.646447C7.55268 0.740215 7.5 0.867392 7.5 1V1.5255C4.315 1.7695 1.7695 4.315 1.5255 7.5H1C0.867392 7.5 0.740215 7.55268 0.646447 7.64645C0.552678 7.74021 0.5 7.86739 0.5 8C0.5 8.13261 0.552678 8.25979 0.646447 8.35355C0.740215 8.44732 0.867392 8.5 1 8.5H1.5255C1.7695 11.685 4.315 14.2305 7.5 14.4745V15C7.5 15.1326 7.55268 15.2598 7.64645 15.3536C7.74021 15.4473 7.86739 15.5 8 15.5C8.13261 15.5 8.25979 15.4473 8.35355 15.3536C8.44732 15.2598 8.5 15.1326 8.5 15V14.4745C11.685 14.2305 14.2305 11.685 14.4745 8.5H15C15.1326 8.5 15.2598 8.44732 15.3536 8.35355C15.4473 8.25979 15.5 8.13261 15.5 8C15.5 7.86739 15.4473 7.74021 15.3536 7.64645C15.2598 7.55268 15.1326 7.5 15 7.5ZM8.5 13.4745V12.5C8.5 12.3674 8.44732 12.2402 8.35355 12.1464C8.25979 12.0527 8.13261 12 8 12C7.86739 12 7.74021 12.0527 7.64645 12.1464C7.55268 12.2402 7.5 12.3674 7.5 12.5V13.4745C4.866 13.236 2.764 11.134 2.5255 8.5H3.5C3.63261 8.5 3.75979 8.44732 3.85355 8.35355C3.94732 8.25979 4 8.13261 4 8C4 7.86739 3.94732 7.74021 3.85355 7.64645C3.75979 7.55268 3.63261 7.5 3.5 7.5H2.5255C2.764 4.866 4.866 2.764 7.5 2.5255V3.5C7.5 3.63261 7.55268 3.75979 7.64645 3.85355C7.74021 3.94732 7.86739 4 8 4C8.13261 4 8.25979 3.94732 8.35355 3.85355C8.44732 3.75979 8.5 3.63261 8.5 3.5V2.5255C11.134 2.7645 13.236 4.866 13.4745 7.5H12.5C12.3674 7.5 12.2402 7.55268 12.1464 7.64645C12.0527 7.74021 12 7.86739 12 8C12 8.13261 12.0527 8.25979 12.1464 8.35355C12.2402 8.44732 12.3674 8.5 12.5 8.5H13.4745C13.236 11.134 11.134 13.236 8.5 13.4745V13.4745Z" fill="#4A5970"/>
</svg>
