<svg width="16" height="16" viewBox="0 0 16 16" fill="none" xmlns="http://www.w3.org/2000/svg">
<path d="M8.36364 8.64935H2.63636C2.25455 8.64935 2 8.38961 2 8C2 7.61039 2.25455 7.35065 2.63636 7.35065H8.36364C8.74545 7.35065 9 7.61039 9 8C9 8.38961 8.74545 8.64935 8.36364 8.64935ZM8.36364 13H2.63636C2.25455 13 2 12.7403 2 12.3506C2 11.961 2.25455 11.7013 2.63636 11.7013H8.36364C8.74545 11.7013 9 11.961 9 12.3506C9 12.7403 8.74545 13 8.36364 13ZM8.36364 4.2987H2.63636C2.25455 4.2987 2 4.03896 2 3.64935C2 3.25974 2.25455 3 2.63636 3H8.36364C8.74545 3 9 3.25974 9 3.64935C9 4.03896 8.74545 4.2987 8.36364 4.2987V4.2987Z" fill="#7B889C"/>
<path d="M11.8302 2.06897C12.0566 2.06897 12.2075 2.13793 12.3585 2.27586L14.7736 4.48276C15.0755 4.75862 15.0755 5.17241 14.7736 5.44828C14.4717 5.72414 14.0189 5.72414 13.717 5.44828L12.5094 4.34483L12.5094 13.3103C12.5094 13.7241 12.2075 14 11.7547 14C11.3019 14 11 13.7241 11 13.3103L11 2.62069C11 2.34483 11.1509 2.06897 11.4528 2C11.6038 2.06897 11.6792 2.06897 11.8302 2.06897V2.06897Z" fill="#7B889C"/>
</svg>
