<svg width="16" height="16" viewBox="0 0 16 16" fill="none" xmlns="http://www.w3.org/2000/svg">
<path fill-rule="evenodd" clip-rule="evenodd" d="M14 7.49102C14 9.485 12.2639 11.1755 9.86135 11.7617C7.54926 12.5701 4.72751 12.3634 3 11.9803C3.71915 11.5497 4.02455 11.2017 4.09475 10.9006C2.81239 10.077 2 8.85501 2 7.49102C2 5.0107 4.68629 3 8 3C11.3137 3 14 5.0107 14 7.49102ZM5 7.99002C5.55228 7.99002 6 7.5432 6 6.99202C6 6.44083 5.55228 5.99401 5 5.99401C4.44772 5.99401 4 6.44083 4 6.99202C4 7.5432 4.44772 7.99002 5 7.99002ZM9 6.99202C9 7.5432 8.55228 7.99002 8 7.99002C7.44772 7.99002 7 7.5432 7 6.99202C7 6.44083 7.44772 5.99401 8 5.99401C8.55228 5.99401 9 6.44083 9 6.99202ZM11 7.99002C11.5523 7.99002 12 7.5432 12 6.99202C12 6.44083 11.5523 5.99401 11 5.99401C10.4477 5.99401 10 6.44083 10 6.99202C10 7.5432 10.4477 7.99002 11 7.99002Z" fill="#0A6CFF"/>
</svg>
