<svg width="16" height="16" viewBox="0 0 16 16" fill="none" xmlns="http://www.w3.org/2000/svg">
<path d="M13.8636 8.64935H8.13636C7.75455 8.64935 7.5 8.38961 7.5 8C7.5 7.61039 7.75455 7.35065 8.13636 7.35065H13.8636C14.2455 7.35065 14.5 7.61039 14.5 8C14.5 8.38961 14.2455 8.64935 13.8636 8.64935ZM13.8636 13H8.13636C7.75455 13 7.5 12.7403 7.5 12.3506C7.5 11.961 7.75455 11.7013 8.13636 11.7013H13.8636C14.2455 11.7013 14.5 11.961 14.5 12.3506C14.5 12.7403 14.2455 13 13.8636 13ZM13.8636 4.2987H8.13636C7.75455 4.2987 7.5 4.03896 7.5 3.64935C7.5 3.25974 7.75455 3 8.13636 3H13.8636C14.2455 3 14.5 3.25974 14.5 3.64935C14.5 4.03896 14.2455 4.2987 13.8636 4.2987Z" fill="#7B889C"/>
</svg>
