<svg width="24" height="28" viewBox="0 0 24 28" fill="none" xmlns="http://www.w3.org/2000/svg">
<path d="M11.8179 13.9395L4.24219 18.5758V27.5758L11.8179 24.0304L19.2422 27.5758V18.5758L11.8179 13.9395Z" fill="url(#paint0_linear_4594_55726)"/>
<path fill-rule="evenodd" clip-rule="evenodd" d="M6.96973 26.2995V16.9067L11.8182 13.9395L16.3637 16.778V26.201L11.8182 24.0304L6.96973 26.2995Z" fill="url(#paint1_linear_4594_55726)"/>
<path d="M11.8182 0.605469L22.053 6.36304V17.8782L11.8182 23.6358L1.58334 17.8782V6.36304L11.8182 0.605469Z" fill="url(#paint2_linear_4594_55726)"/>
<path d="M11.8182 0L22.053 5.75758V17.2727L11.8182 23.0303L1.58334 17.2727V5.75758L11.8182 0Z" fill="url(#paint3_linear_4594_55726)"/>
<path opacity="0.5" d="M11.8181 2.12109L20.2159 6.81806V16.212L11.8181 20.909L3.42024 16.212V6.81806L11.8181 2.12109Z" fill="url(#paint4_linear_4594_55726)"/>
<g opacity="0.2">
<path d="M11.8179 13.9395L4.24219 18.5758V27.5758L11.8179 24.0304L19.2422 27.5758V18.5758L11.8179 13.9395Z" fill="url(#paint5_linear_4594_55726)"/>
<path fill-rule="evenodd" clip-rule="evenodd" d="M6.96973 26.2995V16.9067L11.8182 13.9395L16.3637 16.778V26.201L11.8182 24.0304L6.96973 26.2995Z" fill="url(#paint6_linear_4594_55726)"/>
</g>
<path d="M6.51468 5L3.48438 6.81818L11.6662 14.0909L13.3329 11.2121L6.51468 5Z" fill="url(#paint7_linear_4594_55726)"/>
<path d="M12.1105 7.57617C11.1265 7.57617 10.3343 7.90085 9.73369 8.5502C9.14588 9.16209 8.85198 9.96129 8.8392 10.9603H10.3343C10.3598 10.261 10.5132 9.72402 10.7943 9.37437C11.0754 8.99975 11.4971 8.81244 12.0594 8.81244C12.5833 8.81244 12.9794 8.92482 13.2477 9.16209C13.5033 9.39935 13.6439 9.76149 13.6439 10.2485C13.6439 10.748 13.4394 11.2225 13.0433 11.6596C12.7877 11.9218 12.3788 12.259 11.791 12.6586C10.7304 13.3704 10.0276 13.9198 9.69535 14.2945C9.08199 14.9688 8.78809 15.7555 8.78809 16.6671H15.1517V15.3809H10.6537C10.8582 14.9313 11.4204 14.4068 12.3533 13.8074C13.2477 13.2205 13.8867 12.746 14.2445 12.3714C14.8323 11.7345 15.1389 11.0352 15.1389 10.261C15.1389 9.46179 14.8578 8.82492 14.2956 8.32542C13.7205 7.82592 12.9922 7.57617 12.1105 7.57617Z" fill="#6D34D7"/>
<defs>
<linearGradient id="paint0_linear_4594_55726" x1="4.84825" y1="20.894" x2="17.2708" y2="21.2307" gradientUnits="userSpaceOnUse">
<stop stop-color="#C55EED"/>
<stop offset="1" stop-color="#5E25EB"/>
</linearGradient>
<linearGradient id="paint1_linear_4594_55726" x1="15.6061" y1="21.303" x2="6.97222" y2="20.9664" gradientUnits="userSpaceOnUse">
<stop stop-color="#702CE8"/>
<stop offset="1" stop-color="#C47CEE"/>
</linearGradient>
<linearGradient id="paint2_linear_4594_55726" x1="3.0303" y1="13.0297" x2="14.0909" y2="22.5752" gradientUnits="userSpaceOnUse">
<stop stop-color="#774DDB"/>
<stop offset="1" stop-color="#904BEB"/>
</linearGradient>
<linearGradient id="paint3_linear_4594_55726" x1="11.8182" y1="0" x2="11.8182" y2="23.0303" gradientUnits="userSpaceOnUse">
<stop stop-color="#E4D1F0"/>
<stop offset="1" stop-color="#D4ADEC"/>
</linearGradient>
<linearGradient id="paint4_linear_4594_55726" x1="11.8181" y1="2.12109" x2="11.8181" y2="20.909" gradientUnits="userSpaceOnUse">
<stop stop-color="white"/>
<stop offset="1" stop-color="#F1E0FF"/>
</linearGradient>
<linearGradient id="paint5_linear_4594_55726" x1="4.84825" y1="20.894" x2="17.2708" y2="21.2307" gradientUnits="userSpaceOnUse">
<stop stop-color="#C55EED"/>
<stop offset="1" stop-color="#5E25EB"/>
</linearGradient>
<linearGradient id="paint6_linear_4594_55726" x1="15.6061" y1="21.303" x2="6.97222" y2="20.9664" gradientUnits="userSpaceOnUse">
<stop stop-color="#702CE8"/>
<stop offset="1" stop-color="#C47CEE"/>
</linearGradient>
<linearGradient id="paint7_linear_4594_55726" x1="4.84801" y1="6.66667" x2="12.5753" y2="12.7273" gradientUnits="userSpaceOnUse">
<stop stop-color="white" stop-opacity="0"/>
<stop offset="1" stop-color="white" stop-opacity="0.61"/>
</linearGradient>
</defs>
</svg>
