<?xml version="1.0" encoding="UTF-8"?>
<svg width="11px" height="7px" viewBox="0 0 11 7" version="1.1" xmlns="http://www.w3.org/2000/svg" xmlns:xlink="http://www.w3.org/1999/xlink">
    <!-- Generator: Sketch 53.2 (72643) - https://sketchapp.com -->
    <title>dangqian_icon</title>
    <desc>Created with Sketch.</desc>
    <g id="Page-1" stroke="none" stroke-width="1" fill="none" fill-rule="evenodd">
        <g id="新建指标申请-展示" transform="translate(-216.000000, -165.000000)" fill="#B4BBCB" fill-rule="nonzero">
            <g id="dangqian_icon" transform="translate(221.500000, 168.500000) rotate(-180.000000) translate(-221.500000, -168.500000) translate(216.000000, 165.000000)">
                <path d="M5.79579957,0.10353446 C5.7815078,0.0957438677 5.76900802,0.0820862863 5.75471625,0.0762353271 C5.4938805,-0.0602443067 5.17230843,-0.0154083264 4.9632785,0.226356512 L0.18786042,5.73627689 C-0.0729753254,6.03653529 -0.0604755383,6.51031872 0.214651973,6.7949799 C0.489779484,7.07964109 0.9239084,7.06599954 1.18474415,6.76574114 L5.47065822,1.8212318 L9.81910061,6.7462326 C10.081743,7.04453533 10.5158572,7.05234196 10.7891928,6.76572511 C10.9285412,6.61949922 10.9999853,6.42257036 11,6.22759716 C11,6.04043059 10.9356944,5.85324799 10.8070391,5.70897776 L5.98517648,0.249744319 C5.97624597,0.239998064 5.9619542,0.236102768 5.95302368,0.224400849 C5.94587046,0.216594227 5.9405239,0.208803635 5.93337067,0.19905738 C5.89228735,0.154221399 5.84225882,0.132773226 5.79581426,0.10353446 L5.79581426,0.10353446 L5.79579957,0.10353446 Z" id="路径"></path>
            </g>
        </g>
    </g>
</svg>