<?xml version="1.0" encoding="UTF-8"?>
<svg width="19px" height="19px" viewBox="0 0 19 19" version="1.1" xmlns="http://www.w3.org/2000/svg" xmlns:xlink="http://www.w3.org/1999/xlink">
    <!-- Generator: Sketch 53.2 (72643) - https://sketchapp.com -->
    <title>lianjie_icon</title>
    <desc>Created with Sketch.</desc>
    <g id="Page-1" stroke="none" stroke-width="1" fill="none" fill-rule="evenodd">
        <g id="管理员审批-未接受" transform="translate(-510.000000, -330.000000)" fill="#0053D9" fill-rule="nonzero">
            <g id="lianjie_icon" transform="translate(510.000000, 330.000000)">
                <path d="M7.96507078,11.8052092 C7.71616278,11.8052092 7.55022287,11.7225107 7.38428483,11.5571139 C5.64192513,9.82044324 5.64192513,7.00868502 7.38428483,5.18933206 L11.2838465,1.30250298 C13.0262062,-0.43416766 15.9301416,-0.43416766 17.6724882,1.30250298 C18.5021821,2.12948785 19,3.28726518 19,4.44505552 C19,5.60283471 18.502184,6.76061761 17.6724882,7.58760805 L15.5152731,9.90317015 C15.1833952,10.2339645 14.6855792,10.2339645 14.4366693,9.90317015 C14.1047914,9.57237583 14.1047914,9.07618528 14.4366693,8.82808814 L16.6768506,6.59522138 C17.8384225,5.43744219 17.8384225,3.61807808 16.6768506,2.46028774 C15.5152787,1.30250855 13.6899547,1.30250855 12.5283716,2.46028774 L8.6288099,6.34711682 C7.46723801,7.50489601 7.46723801,9.32426012 8.6288099,10.4820505 C8.96068785,10.8128448 8.96068785,11.3090353 8.6288099,11.5571325 C8.46287093,11.6398309 8.213962,11.8052277 7.965054,11.8052277 L7.96507078,11.8052092 Z M4.48035883,18.9999814 C3.23581699,18.9999814 2.15721133,18.5037909 1.3275118,17.6768041 C0.497817855,16.8498193 0,15.6920419 0,14.5342516 C0,13.3764724 0.497815992,12.2186895 1.3275118,11.3916991 L3.56769308,9.15883231 C3.89957103,8.82803799 4.39738702,8.82803799 4.64629688,9.15883231 C4.97817483,9.48962663 4.97817483,9.98581718 4.64629688,10.2339143 L2.4061156,12.4667811 C1.24454371,13.6245603 1.24454371,15.4439244 2.4061156,16.6017147 C2.90393159,17.0979053 3.65065744,17.4286996 4.48034579,17.4286996 C5.31003973,17.4286996 6.05676558,17.0979053 6.55457598,16.6017147 L10.4541377,12.7148856 C10.9519537,12.2186951 11.2838316,11.4744074 11.2838316,10.6474281 C11.2838316,9.82044324 10.9519537,9.1588546 10.4541377,8.57997058 C10.1222597,8.24917626 10.1222597,7.75298571 10.4541377,7.50488858 C10.7860156,7.17409426 11.2838316,7.17409426 11.5327415,7.50488858 C12.3624354,8.33187345 12.8602533,9.48965078 12.8602533,10.6474411 C12.8602533,11.8879193 12.3624373,12.9630032 11.5327415,13.7899936 L7.63317978,17.6768227 C6.80348584,18.5038076 5.72488204,19 4.48033274,19 L4.48035883,18.9999814 Z" id="形状"></path>
            </g>
        </g>
    </g>
</svg>