<?xml version="1.0" encoding="UTF-8"?>
<svg width="16px" height="16px" viewBox="0 0 16 16" version="1.1" xmlns="http://www.w3.org/2000/svg" xmlns:xlink="http://www.w3.org/1999/xlink">
    <!-- Generator: Sketch 53.2 (72643) - https://sketchapp.com -->
    <title>zhbkj_icon</title>
    <desc>Created with Sketch.</desc>
    <g id="Page-1" stroke="none" stroke-width="1" fill="none" fill-rule="evenodd">
        <g id="指标操作台-新建指标-指标验收" transform="translate(-562.000000, -330.000000)" fill-rule="nonzero">
            <g id="zhbkj_icon" transform="translate(561.000000, 329.000000)">
                <g id="分组">
                    <rect id="矩形" fill="#000000" opacity="0" x="0" y="0" width="18" height="18"></rect>
                    <path d="M14.625,1.125 L3.375,1.125 C2.1375,1.125 1.125,2.1375 1.125,3.375 L1.125,12.375 C1.125,13.6125 2.1375,14.625 3.375,14.625 L5.625,14.625 L7.947,16.74225 C8.069625,16.833375 8.206875,16.875 8.339625,16.875 C8.6805,16.875 9,16.606125 9,16.21575 L9,14.625 L14.625,14.625 C15.8625,14.625 16.875,13.6125 16.875,12.375 L16.875,3.375 C16.875,2.1375 15.8625,1.125 14.625,1.125 Z M15.75,12.375 C15.75,12.996 15.246,13.5 14.625,13.5 L9,13.5 C8.701875,13.5 8.415,13.618125 8.204625,13.829625 C7.99425,14.041125 7.875,14.326875 7.875,14.625 L7.875,15.15375 L6.38325,13.793625 C6.175125,13.604625 5.905125,13.5 5.625,13.5 L3.375,13.5 C2.754,13.5 2.25,12.996 2.25,12.375 L2.25,3.375 C2.25,2.754 2.754,2.25 3.375,2.25 L14.625,2.25 C15.246,2.25 15.75,2.754 15.75,3.375 L15.75,12.375 Z M12.9375,5.625 L5.0625,5.625 C4.752,5.625 4.5,5.877 4.5,6.1875 C4.5,6.498 4.752,6.75 5.0625,6.75 L12.9375,6.75 C13.248,6.75 13.5,6.498 13.5,6.1875 C13.5,5.877 13.248,5.625 12.9375,5.625 Z M12.9375,9 L5.0625,9 C4.752,9 4.5,9.252 4.5,9.5625 C4.5,9.873 4.752,10.125 5.0625,10.125 L12.9375,10.125 C13.248,10.125 13.5,9.873 13.5,9.5625 C13.5,9.252 13.248,9 12.9375,9 Z" id="形状" fill="#51596D"></path>
                </g>
            </g>
        </g>
    </g>
</svg>