<svg xmlns="http://www.w3.org/2000/svg" width="16" height="16" viewBox="0 0 16 16">
  <path fill-rule="evenodd" clip-rule="evenodd" d="M2.5 1.5C2.77614 1.5 3 1.72386 3 2V13H13.5C13.7761 13 14 13.2239 14 13.5C14 13.7761 13.7761 14 13.5 14H2V2C2 1.72386 2.22386 1.5 2.5 1.5Z" fill="#4A5970"></path>
  <path fill-rule="evenodd" clip-rule="evenodd" d="M14 10.5C13.7239 10.5 13.5 10.2761 13.5 10L13.5 2.5L6 2.5C5.72386 2.5 5.5 2.27614 5.5 2C5.5 1.72386 5.72386 1.5 6 1.5L14.5 1.5L14.5 10C14.5 10.2761 14.2761 10.5 14 10.5Z" fill="#4A5970"></path>
  <path fill-rule="evenodd" clip-rule="evenodd" d="M12 10.5C11.7239 10.5 11.5 10.2761 11.5 10L11.5 4.5L6 4.5C5.72386 4.5 5.5 4.27614 5.5 4C5.5 3.72386 5.72386 3.5 6 3.5L12.5 3.5L12.5 10C12.5 10.2761 12.2761 10.5 12 10.5Z" fill="#4A5970"></path>
  <path fill-rule="evenodd" clip-rule="evenodd" d="M10 10.5C9.72386 10.5 9.5 10.2761 9.5 10L9.5 6.5L6 6.5C5.72386 6.5 5.5 6.27614 5.5 6C5.5 5.72386 5.72386 5.5 6 5.5L10.5 5.5L10.5 10C10.5 10.2761 10.2761 10.5 10 10.5Z" fill="#4A5970"></path>
  <path d="M1 13.5C1 13.8978 1.15804 14.2794 1.43934 14.5607C1.72064 14.842 2.10218 15 2.5 15C2.89783 15 3.27936 14.842 3.56066 14.5607C3.84197 14.2794 4 13.8978 4 13.5C4 13.303 3.9612 13.108 3.88582 12.926C3.81044 12.744 3.69995 12.5786 3.56066 12.4393C3.42137 12.3001 3.25601 12.1896 3.07403 12.1142C2.89204 12.0388 2.69698 12 2.5 12C2.30302 12 2.10796 12.0388 1.92598 12.1142C1.74399 12.1896 1.57863 12.3001 1.43934 12.4393C1.30005 12.5786 1.18956 12.744 1.11418 12.926C1.0388 13.108 1 13.303 1 13.5Z" fill="#4A5970"></path>
  <path d="M1 2.5C1 2.89782 1.15804 3.27936 1.43934 3.56066C1.72064 3.84196 2.10218 4 2.5 4C2.89783 4 3.27936 3.84196 3.56066 3.56066C3.84197 3.27936 4 2.89782 4 2.5C4 2.30302 3.9612 2.10796 3.88582 1.92597C3.81044 1.74399 3.69995 1.57863 3.56066 1.43934C3.42137 1.30005 3.25601 1.18956 3.07403 1.11418C2.89204 1.0388 2.69698 1 2.5 1C2.30302 1 2.10796 1.0388 1.92598 1.11418C1.74399 1.18956 1.57863 1.30005 1.43934 1.43934C1.30005 1.57863 1.18956 1.74399 1.11418 1.92597C1.0388 2.10796 1 2.30302 1 2.5Z" fill="#4A5970"></path>
  <path d="M12 13.5C12 13.8978 12.158 14.2794 12.4393 14.5607C12.7206 14.842 13.1022 15 13.5 15C13.8978 15 14.2794 14.842 14.5607 14.5607C14.842 14.2794 15 13.8978 15 13.5C15 13.303 14.9612 13.108 14.8858 12.926C14.8104 12.744 14.6999 12.5786 14.5607 12.4393C14.4214 12.3001 14.256 12.1896 14.074 12.1142C13.892 12.0388 13.697 12 13.5 12C13.303 12 13.108 12.0388 12.926 12.1142C12.744 12.1896 12.5786 12.3001 12.4393 12.4393C12.3001 12.5786 12.1896 12.744 12.1142 12.926C12.0388 13.108 12 13.303 12 13.5Z" fill="#4A5970"></path>
</svg>