<svg xmlns="http://www.w3.org/2000/svg" viewBox="0 0 16 16" class="design-iconfont" width="128" height="128">
  <path fill-rule="evenodd" clip-rule="evenodd" d="M2.5 2C2.22386 2 2 2.22386 2 2.5V7.5C2 7.77614 1.77614 8 1.5 8C1.22386 8 1 7.77614 1 7.5V2.5C1 1.67157 1.67157 1 2.5 1H13.5C14.3284 1 15 1.67157 15 2.5V13.5C15 14.3284 14.3284 15 13.5 15H2.5C1.67157 15 1 14.3284 1 13.5V11.5C1 11.2239 1.22386 11 1.5 11C1.77614 11 2 11.2239 2 11.5V13.5C2 13.7761 2.22386 14 2.5 14H13.5C13.7761 14 14 13.7761 14 13.5V2.5C14 2.22386 13.7761 2 13.5 2H2.5Z" fill="#4A5970"></path>
  <path fill-rule="evenodd" clip-rule="evenodd" d="M10.3536 7.14645C10.5488 7.34171 10.5488 7.65829 10.3536 7.85355L8.06066 10.1464C7.47487 10.7322 6.52513 10.7322 5.93934 10.1464L4.35355 8.56066C4.15829 8.3654 3.84171 8.3654 3.64645 8.56066L1.85355 10.3536C1.65829 10.5488 1.34171 10.5488 1.14645 10.3536C0.951184 10.1583 0.951184 9.84171 1.14645 9.64645L2.93934 7.85355C3.52513 7.26777 4.47487 7.26777 5.06066 7.85355L6.64645 9.43934C6.84171 9.6346 7.15829 9.6346 7.35355 9.43934L9.64645 7.14645C9.84171 6.95118 10.1583 6.95118 10.3536 7.14645Z" fill="#4A5970"></path>
  <path d="M11.2125 5.8501C11.3 5.8501 11.475 5.8501 11.5625 5.9376C11.65 6.0251 11.65 6.2001 11.7375 6.2876L11.125 8.7376C11.125 8.8251 10.95 9.0001 10.8625 9.0001C10.775 9.0001 10.6 9.0001 10.5125 8.9126L9.9875 8.3876L9.2 7.6876L8.5875 7.0751C8.5 6.9876 8.5 6.8126 8.5 6.7251C8.5 6.5501 8.5875 6.4626 8.7625 6.4626L11.2125 5.8501Z" fill="#4A5970"></path>
</svg>