<?xml version="1.0" encoding="UTF-8"?>
<svg width="139px" height="139px" viewBox="0 0 139 139" version="1.1" xmlns="http://www.w3.org/2000/svg" xmlns:xlink="http://www.w3.org/1999/xlink">
    <!-- Generator: Sketch 62 (91390) - https://sketch.com -->
    <title>Andriod</title>
    <desc>Created with Sketch.</desc>
    <defs>
        <linearGradient x1="62.0543553%" y1="4.07986111%" x2="20.9945356%" y2="95.9201389%" id="linearGradient-1">
            <stop stop-color="#619EFF" offset="0%"></stop>
            <stop stop-color="#0F6BFF" offset="100%"></stop>
        </linearGradient>
    </defs>
    <g id="Andriod" stroke="none" stroke-width="1" fill="none" fill-rule="evenodd">
        <circle id="椭圆形备份-12" fill="#F2F4F7" cx="69.5" cy="69.5" r="69.5"></circle>
        <g id="android备份-2" transform="translate(36.000000, 36.000000)" fill-rule="nonzero">
            <rect id="矩形" fill="#000000" opacity="0" x="0" y="0" width="67" height="67"></rect>
            <path d="M56.873322,43.7227344 L9.44450141,43.7227344 C9.44450141,36.5434444 12.9843981,30.1533907 18.4923558,26.0286348 L9.75093747,13.716149 L9.81546079,13.6564306 C9.67155989,13.5860069 9.53568288,13.4952041 9.41824116,13.3746066 C8.86750509,12.8096687 8.8934338,11.9189241 9.47646469,11.3846194 C10.0592303,10.8508949 10.9780743,10.8755304 11.5292082,11.4405327 C11.6457879,11.5612591 11.7317968,11.6977213 11.797116,11.8408905 L11.8615066,11.7820751 L20.861615,24.458675 C24.4474672,22.3890418 28.6559397,21.1968681 33.1586465,21.1968681 C37.5836997,21.1968681 41.7229406,22.3515083 45.2676782,24.3554255 L53.03309,12.0827304 L53.0988733,12.140256 C53.1641925,12.0012787 53.2510635,11.8682345 53.3693673,11.7509906 C53.9257401,11.2023044 54.8548627,11.17754 55.4435966,11.6964316 C56.0323968,12.2157746 56.058657,13.0816902 55.5014222,13.6312794 C55.3831184,13.7493617 55.2406101,13.8304909 55.0946534,13.8994958 L55.1656092,13.9631481 L47.6255979,25.8797259 C53.2483446,29.9986132 56.873322,36.456898 56.873322,43.7227344 L56.873322,43.7227344 Z M33.1587127,24.575919 C23.9910957,24.575919 14.1870651,31.6354498 14.1870651,40.3436836 L52.1304267,40.3436836 C52.1304267,31.6354498 42.3267277,24.575919 33.1587127,24.575919 L33.1587127,24.575919 Z M41.6471439,35.617746 C40.5431518,35.617746 39.6483135,34.747445 39.6483135,33.673934 C39.6483135,32.6002941 40.5431519,31.7300576 41.6471439,31.7300576 C42.751136,31.7300576 43.6459743,32.6003586 43.6459743,33.673934 C43.6459743,34.747445 42.7510697,35.617746 41.6471439,35.617746 L41.6471439,35.617746 Z M24.3243225,35.617746 C23.2199326,35.617746 22.3255584,34.747445 22.3255584,33.673934 C22.3255584,32.6002941 23.2198662,31.7300576 24.3243225,31.7300576 C25.4283146,31.7300576 26.3231529,32.6003586 26.3231529,33.673934 C26.3232193,34.747445 25.4283146,35.617746 24.3243225,35.617746 L24.3243225,35.617746 Z M10.9988305,49.2246231 C12.1028226,49.2246231 12.9975946,50.0949241 12.9975946,51.1684995 C12.9975946,51.4353618 13.6517139,53.2457426 15.7851613,53.2457426 L49.9589814,53.2457426 C52.4386532,53.2457426 52.9740045,51.2196406 52.9740045,51.8165014 C52.9740045,50.7428614 53.868445,49.8726894 54.9728349,49.8726894 C56.076827,49.8726894 56.971599,50.7428615 56.971599,51.8165014 C57.0575417,51.8689967 57.2781014,57 51.8946148,57 L13.8489974,57 C8.66279435,57 9.05351523,51.2191893 9,51.1684351 C9,50.0949242 9.89483837,49.2246231 10.9988305,49.2246231 L10.9988305,49.2246231 Z" id="形状" fill="url(#linearGradient-1)"></path>
        </g>
    </g>
</svg>