<?xml version="1.0" encoding="UTF-8"?>
<svg width="370px" height="70px" viewBox="0 0 370 70" version="1.1" xmlns="http://www.w3.org/2000/svg" xmlns:xlink="http://www.w3.org/1999/xlink">
    <title>fzb_zbt</title>
    <g id="页面-1" stroke="none" stroke-width="1" fill="none" fill-rule="evenodd">
        <g id="反作弊服务" transform="translate(-74.000000, -218.000000)" fill="#FFFFFF" fill-rule="nonzero">
            <path d="M84.272,287.032 C87.2613333,280.597333 89.668,274.226 91.492,267.918 C93.316,261.61 94.7346667,255.086667 95.748,248.348 L95.748,248.348 L129.872,248.348 C130.074667,248.348 130.214,248.411333 130.29,248.538 C130.366,248.664667 130.328,248.854667 130.176,249.108 C129.416,250.273333 128.440667,251.628667 127.25,253.174 C126.059333,254.719333 124.666,256.404 123.07,258.228 C121.474,260.052 119.789333,261.825333 118.016,263.548 C114.621333,259.849333 111.606667,256.226667 108.972,252.68 L108.972,252.68 L99.472,252.68 C103.829333,258.354667 108.186667,263.674667 112.544,268.64 C105.805333,274.466667 97.496,280.597333 87.616,287.032 L87.616,287.032 L101.828,287.032 C107.604,282.826667 112.898667,278.621333 117.712,274.416 C122.12,279.229333 126.274667,283.434667 130.176,287.032 L130.176,287.032 L142.716,287.032 C135.724,281.256 129.238667,275.302667 123.26,269.172 C129.948,262.636 135.141333,256.378667 138.84,250.4 C139.954667,248.576 140.512,246.524 140.512,244.244 C140.512,243.18 140.309333,242.432667 139.904,242.002 C139.498667,241.571333 138.713333,241.356 137.548,241.356 L137.548,241.356 L96.66,241.356 C96.8626667,239.734667 97.0906667,237.632 97.344,235.048 C97.5973333,232.464 97.7493333,230.969333 97.8,230.564 C104.944,230.209333 112.759333,229.652 121.246,228.892 C129.732667,228.132 137.446667,227.321333 144.388,226.46 L144.388,226.46 L145.376,218.86 C136.661333,220.126667 127.44,221.190667 117.712,222.052 C107.984,222.913333 98.636,223.521333 89.668,223.876 C89.06,235.022667 88.11,244.028667 86.818,250.894 C85.526,257.759333 83.8286667,264.105333 81.726,269.932 C79.6233333,275.758667 77.1533333,281.458667 74.316,287.032 L74.316,287.032 L84.272,287.032 Z M163.996,287.108 L170.912,237.328 C173.293333,234.389333 175.345333,231.324 177.068,228.132 C178.790667,224.94 180.108,221.798667 181.02,218.708 L181.02,218.708 L172.128,218.708 C171.064,222.001333 169.582,225.218667 167.682,228.36 C165.782,231.501333 163.704667,234.212 161.45,236.492 C159.195333,238.772 157.08,240.621333 155.104,242.04 L155.104,242.04 L153.28,253.44 C155.914667,251.818667 158.498667,249.893333 161.032,247.664 L161.032,247.664 L155.256,287.108 L163.996,287.108 Z M194.472,287.184 L196.904,269.552 L216.36,269.552 L217.424,262.864 L197.892,262.864 L199.336,252.68 L218.564,252.68 L219.552,245.992 L200.248,245.992 L201.692,235.504 L223.428,235.504 L224.416,228.664 L195.08,228.664 C196.954667,225.218667 198.348,221.9 199.26,218.708 L199.26,218.708 L190.596,218.708 C189.532,221.849333 188.278,224.712 186.834,227.296 C185.39,229.88 183.933333,232.096667 182.464,233.946 C180.994667,235.795333 179.626667,237.264667 178.36,238.354 C177.093333,239.443333 176.029333,240.266667 175.168,240.824 L175.168,240.824 L173.724,251.464 C176.916,249.64 179.981333,247.334667 182.92,244.548 C185.858667,241.761333 188.493333,238.746667 190.824,235.504 L190.824,235.504 L193.56,235.504 L186.112,287.184 L194.472,287.184 Z M235.284,257.848 L237.868,237.024 L245.012,237.024 L242.428,256.708 L248.812,256.708 L251.244,237.024 L257.476,237.024 C257.932,237.024 258.16,237.176 258.16,237.48 L258.16,237.48 L258.16,238.24 L256.488,251.768 L250.18,251.768 L251.928,257.848 L262.264,257.848 L265.38,235.504 C265.633333,233.730667 265.468667,232.527333 264.886,231.894 C264.303333,231.260667 263.074667,230.944 261.2,230.944 L261.2,230.944 L252.536,230.944 L254.284,218.632 L246.988,218.632 L245.24,230.944 L232.016,230.944 L228.444,257.848 L235.284,257.848 Z M273.664,257.848 C275.690667,256.024 277.616,254.149333 279.44,252.224 C281.162667,254.098667 283.012,255.973333 284.988,257.848 L284.988,257.848 L295.248,257.848 C292.258667,255.365333 288.458667,251.793333 283.848,247.132 C285.52,244.953333 287.116,242.534 288.636,239.874 C290.156,237.214 291.372,234.642667 292.284,232.16 L292.284,232.16 L297.148,232.16 L298.212,225.624 L280.884,225.624 C281.238667,224.762667 281.682,223.61 282.214,222.166 C282.746,220.722 283.113333,219.544 283.316,218.632 L283.316,218.632 L276.172,218.632 C275.361333,221.621333 274.158,224.37 272.562,226.878 C270.966,229.386 269.205333,231.349333 267.28,232.768 L267.28,232.768 L265.684,242.192 C266.494667,241.736 267.66,241.001333 269.18,239.988 C271.358667,242.825333 273.233333,245.181333 274.804,247.056 C271.713333,250.450667 267.66,254.048 262.644,257.848 L262.644,257.848 L273.664,257.848 Z M244.404,229.272 C242.681333,226.130667 241.212,223.192 239.996,220.456 L239.996,220.456 L232.624,220.456 C233.738667,223.293333 235.030667,226.232 236.5,229.272 L236.5,229.272 L244.404,229.272 Z M262.036,229.272 C263.86,226.84 265.709333,224.002667 267.584,220.76 L267.584,220.76 L259.756,220.76 C257.881333,223.901333 255.905333,226.738667 253.828,229.272 L253.828,229.272 L262.036,229.272 Z M278.984,241.964 C277.666667,240.494667 276.526667,239.152 275.564,237.936 L275.564,237.936 L271.764,237.936 C273.790667,236.213333 275.564,234.288 277.084,232.16 L277.084,232.16 L284.608,232.16 C283.138667,235.504 281.264,238.772 278.984,241.964 Z M241.212,252.3 C241.921333,249.564 242.858667,245.105333 244.024,238.924 L244.024,238.924 L239.692,238.924 C238.729333,244.092 237.716,248.550667 236.652,252.3 L236.652,252.3 L241.212,252.3 Z M255.88,249.26 C255.829333,247.030667 255.854667,243.585333 255.956,238.924 L255.956,238.924 L251.852,238.924 L251.548,249.26 L255.88,249.26 Z M236.88,287.032 C242.098667,282.624 245.898667,277.836 248.28,272.668 L248.28,272.668 L268.952,272.668 L266.976,287.032 L275.564,287.032 L277.464,272.668 L292.74,272.668 L293.652,265.98 L278.3,265.98 L279.136,259.824 L270.7,259.824 L269.864,265.98 L250.408,265.98 C250.813333,263.548 251.066667,261.394667 251.168,259.52 L251.168,259.52 L242.732,259.52 C242.630667,261.952 242.352,264.105333 241.896,265.98 L241.896,265.98 L226.088,265.98 L225.1,272.668 L239.16,272.668 C236.069333,277.684 230.850667,282.472 223.504,287.032 L223.504,287.032 L236.88,287.032 Z M304.444,287.032 C306.318667,279.989333 308.117333,272.06 309.84,263.244 L309.84,263.244 L318.504,263.244 L314.78,287.032 L322.912,287.032 L332.184,224.408 C332.437333,222.685333 332.196667,221.532667 331.462,220.95 C330.727333,220.367333 329.296,220.076 327.168,220.076 L327.168,220.076 L308.624,220.076 C306.648,234.82 304.646667,248.044 302.62,259.748 C300.846667,269.932 298.693333,279.026667 296.16,287.032 L296.16,287.032 L304.444,287.032 Z M345.864,287.032 C346.269333,286.576 347.004,285.74 348.068,284.524 C349.132,283.308 350.348,281.813333 351.716,280.04 C353.337333,282.624 354.832,284.954667 356.2,287.032 L356.2,287.032 L365.928,287.032 C362.685333,282.877333 359.569333,278.418667 356.58,273.656 C359.366667,269.704 362.381333,264.688 365.624,258.608 C367.042667,255.770667 367.752,253.490667 367.752,251.768 C367.752,250.450667 367.498667,249.627333 366.992,249.298 C366.485333,248.968667 365.826667,248.804 365.016,248.804 L365.016,248.804 L342.292,248.804 L345.408,226.84 L360.836,226.84 C361.697333,226.84 362.052,227.270667 361.9,228.132 C361.393333,231.628 360.912,234.490667 360.456,236.72 L360.456,236.72 L348.98,236.72 L350.88,243.408 L367.6,243.408 C368.917333,236.213333 369.930667,229.930667 370.64,224.56 C370.741333,223.749333 370.754,222.989333 370.678,222.28 C370.602,221.570667 370.272667,221.038667 369.69,220.684 C369.107333,220.329333 368.208,220.152 366.992,220.152 L366.992,220.152 L338.416,220.152 L328.612,287.032 L345.864,287.032 Z M322.456,238.088 L313.868,238.088 L315.464,226.536 L322.76,226.536 C323.317333,226.536 323.684667,226.637333 323.862,226.84 C324.039333,227.042667 324.102667,227.422667 324.052,227.98 L324.052,227.98 L322.456,238.088 Z M319.492,257.012 L310.98,257.012 L312.956,244.244 L321.468,244.244 L319.492,257.012 Z M352.552,267.12 C350.525333,263.573333 349.056,260.913333 348.144,259.14 L348.144,259.14 L340.772,259.14 L341.304,255.492 L358.1,255.492 C358.353333,255.492 358.530667,255.593333 358.632,255.796 C358.733333,255.998667 358.708,256.302667 358.556,256.708 C357.492,258.886667 356.326667,261.002 355.06,263.054 C353.793333,265.106 352.957333,266.461333 352.552,267.12 Z M336.972,286.196 L340.696,259.976 C343.482667,265.397333 345.889333,269.906667 347.916,273.504 C344.724,277.709333 341.076,281.94 336.972,286.196 L336.972,286.196 Z M391.996,254.504 C398.684,251.616 405.22,248.550667 411.604,245.308 C418.038667,249.158667 423.510667,252.224 428.02,254.504 L428.02,254.504 L443.524,254.504 C432.833333,249.488 424.473333,245.257333 418.444,241.812 C421.889333,239.937333 425.018,238.176667 427.83,236.53 C430.642,234.883333 432.934667,233.452 434.708,232.236 C435.214667,231.881333 435.759333,231.374667 436.342,230.716 C436.924667,230.057333 437.368,229.272 437.672,228.36 C437.976,227.448 438.153333,226.764 438.204,226.308 C438.356,224.94 437.368,224.256 435.24,224.256 L435.24,224.256 L405.068,224.256 C406.182667,222.482667 407.044,220.608 407.652,218.632 L407.652,218.632 L398.76,218.632 C397.442667,221.672 395.454,224.382667 392.794,226.764 C390.134,229.145333 387.132,231.02 383.788,232.388 L383.788,232.388 L381.432,241.128 C383.762667,240.368 386.055333,239.430667 388.31,238.316 C390.564667,237.201333 392.654667,235.985333 394.58,234.668 C398.988,237.606667 401.724,239.405333 402.788,240.064 C403.852,240.722667 404.586667,241.178667 404.992,241.432 C400.178667,243.712 395.517333,245.827333 391.008,247.778 C386.498667,249.728667 381.052,251.970667 374.668,254.504 L374.668,254.504 L391.996,254.504 Z M411.908,237.936 C409.881333,236.72 407.576,235.276 404.992,233.604 L404.992,233.604 L396.176,233.604 C396.570074,233.288741 397.063761,232.881531 397.657062,232.38237 L398.19,231.932 C399.026,231.222667 399.672,230.665333 400.128,230.26 L400.128,230.26 L423.536,230.26 C423.890667,230.26 424.055333,230.361333 424.03,230.564 C424.004667,230.766667 423.814667,230.994667 423.46,231.248 C420.116,233.477333 416.265333,235.706667 411.908,237.936 Z M387.588,287.032 C393.414667,283.232 398.012667,279.508 401.382,275.86 C404.751333,272.212 407.297333,268.285333 409.02,264.08 L409.02,264.08 L425.36,264.08 C425.816,264.08 426.107333,264.206667 426.234,264.46 C426.360667,264.713333 426.398667,265.042667 426.348,265.448 C426.196,267.272 425.917333,269.716667 425.512,272.782 C425.106667,275.847333 424.726667,278.418667 424.372,280.496 L424.372,280.496 L406.512,280.496 L408.564,287.032 L432.276,287.032 C432.732,284.296 433.188,281.281333 433.644,277.988 C434.1,274.694667 434.48,271.718 434.784,269.058 C435.088,266.398 435.316,264.206667 435.468,262.484 C435.670667,260.609333 435.417333,259.342667 434.708,258.684 C433.998667,258.025333 432.858667,257.696 431.288,257.696 L431.288,257.696 L411.148,257.696 C411.806667,255.264 412.389333,252.882667 412.896,250.552 L412.896,250.552 L404.308,250.552 C403.7,253.389333 403.142667,255.770667 402.636,257.696 L402.636,257.696 L381.052,257.696 L382.724,264.08 L400.28,264.08 C399.621333,265.448 398.684,266.904667 397.468,268.45 C396.252,269.995333 394.681333,271.654667 392.756,273.428 C390.830667,275.201333 388.487333,277.050667 385.726,278.976 C382.964667,280.901333 380.228667,282.586 377.518,284.03 C374.807333,285.474 372.818667,286.474667 371.552,287.032 L371.552,287.032 L387.588,287.032 Z" id="fzb_zbt"></path>
        </g>
    </g>
</svg>