<?xml version="1.0" encoding="UTF-8"?>
<svg width="467px" height="32px" viewBox="0 0 467 32" version="1.1" xmlns="http://www.w3.org/2000/svg" xmlns:xlink="http://www.w3.org/1999/xlink">
    <title>fzb_fbt</title>
    <g id="页面-1" stroke="none" stroke-width="1" fill="none" fill-rule="evenodd">
        <g id="反作弊服务" transform="translate(-74.000000, -331.000000)" fill="#FFFFFF" fill-rule="nonzero">
            <path d="M92.73,358.96 C91.29,358.16 89.57,357.12 87.57,355.84 C89.09,354.9 90.61,353.805 92.13,352.555 C93.65,351.305 94.9,350.16 95.88,349.12 C96.22,348.72 96.39,348.28 96.39,347.8 C96.39,347.38 96.04,347.17 95.34,347.17 L95.34,347.17 L83.16,347.17 C83.56,346.31 84.23,344.8 85.17,342.64 L85.17,342.64 L100.29,342.64 L100.47,341.44 L85.68,341.44 C86.62,339.12 87.22,337.62 87.48,336.94 L87.48,336.94 L99.27,336.94 L99.48,335.74 L87.96,335.74 L89.34,331.99 L87.72,331.99 L86.34,335.74 L77.46,335.74 L77.25,336.94 L85.86,336.94 C85.52,337.8 84.92,339.3 84.06,341.44 L84.06,341.44 L74.94,341.44 L74.76,342.64 L83.55,342.64 C82.81,344.34 81.93,346.25 80.91,348.37 L80.91,348.37 L94.17,348.37 C94.25,348.37 94.31,348.39 94.35,348.43 C94.39,348.47 94.4,348.515 94.38,348.565 C94.36,348.615 94.32,348.67 94.26,348.73 C93.12,349.87 91.855,350.99 90.465,352.09 C89.075,353.19 87.68,354.16 86.28,355 C84.44,353.76 82.58,352.48 80.7,351.16 L80.7,351.16 L78.69,351.16 C83.45,354.7 87.26,357.3 90.12,358.96 L90.12,358.96 L92.73,358.96 Z M128.16,358.48 L128.34,357.16 L118.8,357.16 L122.28,332.38 L120.75,332.38 L117.21,357.16 L111.84,357.16 L115.35,332.38 L113.82,332.38 L110.25,357.16 L101.4,357.16 L101.22,358.48 L128.16,358.48 Z M109.05,351.19 C108.27,346.03 107.61,341.08 107.07,336.34 L107.07,336.34 L105.57,336.34 C106.07,340.84 106.7,345.79 107.46,351.19 L107.46,351.19 L109.05,351.19 Z M123.39,351.19 C124.31,349.23 125.285,346.925 126.315,344.275 C127.345,341.625 128.31,338.98 129.21,336.34 L129.21,336.34 L127.65,336.34 C125.59,342.34 123.63,347.29 121.77,351.19 L121.77,351.19 L123.39,351.19 Z M136.35,341.65 L137.07,336.61 L156.03,336.61 C156.37,336.61 156.595,336.675 156.705,336.805 C156.815,336.935 156.84,337.17 156.78,337.51 L156.78,337.51 L156.12,341.65 L157.68,341.65 L158.34,337.06 C158.42,336.46 158.345,336.03 158.115,335.77 C157.885,335.51 157.46,335.38 156.84,335.38 L156.84,335.38 L148.08,335.38 C148.04,335.26 147.945,334.98 147.795,334.54 C147.645,334.1 147.515,333.72 147.405,333.4 C147.295,333.08 147.21,332.8 147.15,332.56 C147.09,332.32 147.04,332.12 147,331.96 L147,331.96 L145.35,331.96 C145.61,333 145.98,334.14 146.46,335.38 L146.46,335.38 L135.69,335.38 L134.82,341.65 L136.35,341.65 Z M134.91,358.96 C136.43,358.54 138.21,357.855 140.25,356.905 C142.29,355.955 143.84,355.12 144.9,354.4 L144.9,354.4 L153.3,358.96 L156.27,358.96 C153.09,357.26 149.7,355.46 146.1,353.56 C147.54,352.46 148.86,351.24 150.06,349.9 C151.26,348.56 152.43,346.96 153.57,345.1 L153.57,345.1 L158.31,345.1 L158.49,343.87 L143.79,343.87 C145.05,342.15 146.05,340.67 146.79,339.43 L146.79,339.43 L145.05,339.43 C144.27,340.77 143.28,342.25 142.08,343.87 L142.08,343.87 L133.53,343.87 L133.35,345.1 L141.15,345.1 C139.57,347.12 138.07,348.83 136.65,350.23 C138.79,351.19 141.1,352.35 143.58,353.71 C142.72,354.25 141.615,354.855 140.265,355.525 C138.915,356.195 137.4,356.85 135.72,357.49 C134.04,358.13 132.52,358.62 131.16,358.96 L131.16,358.96 L134.91,358.96 Z M144.81,352.84 C143.51,352.16 141.51,351.17 138.81,349.87 C140.17,348.43 141.52,346.84 142.86,345.1 L142.86,345.1 L151.8,345.1 C149.96,348.12 147.63,350.7 144.81,352.84 Z M164.37,343.33 C165.89,342.05 167.385,340.615 168.855,339.025 C170.325,337.435 171.71,335.8 173.01,334.12 L173.01,334.12 L179.64,334.12 C179.9,334.12 180.09,334.18 180.21,334.3 C180.33,334.42 180.41,334.51 180.45,334.57 C181.85,336.69 183,338.4 183.9,339.7 C184.8,341 185.68,342.2 186.54,343.3 L186.54,343.3 L188.67,343.3 C186.07,340.14 183.79,337.02 181.83,333.94 C181.57,333.52 181.33,333.24 181.11,333.1 C180.89,332.96 180.62,332.89 180.3,332.89 L180.3,332.89 L172.17,332.89 C171.57,333.69 170.76,334.695 169.74,335.905 C168.72,337.115 167.505,338.405 166.095,339.775 C164.685,341.145 163.33,342.33 162.03,343.33 L162.03,343.33 L164.37,343.33 Z M186,358.51 L186.18,357.28 L174.15,357.28 L175.08,350.29 L184.14,350.29 L184.32,349.06 L175.26,349.06 L176.07,343.09 L182.52,343.09 L182.7,341.83 L168.42,341.83 L168.24,343.09 L174.57,343.09 L173.73,349.06 L164.67,349.06 L164.49,350.29 L173.55,350.29 L172.56,357.28 L160.74,357.28 L160.56,358.51 L186,358.51 Z M209.85,358.96 C208.41,358.16 206.69,357.12 204.69,355.84 C206.21,354.9 207.73,353.805 209.25,352.555 C210.77,351.305 212.02,350.16 213,349.12 C213.34,348.72 213.51,348.28 213.51,347.8 C213.51,347.38 213.16,347.17 212.46,347.17 L212.46,347.17 L200.28,347.17 C200.68,346.31 201.35,344.8 202.29,342.64 L202.29,342.64 L217.41,342.64 L217.59,341.44 L202.8,341.44 C203.74,339.12 204.34,337.62 204.6,336.94 L204.6,336.94 L216.39,336.94 L216.6,335.74 L205.08,335.74 L206.46,331.99 L204.84,331.99 L203.46,335.74 L194.58,335.74 L194.37,336.94 L202.98,336.94 C202.64,337.8 202.04,339.3 201.18,341.44 L201.18,341.44 L192.06,341.44 L191.88,342.64 L200.67,342.64 C199.93,344.34 199.05,346.25 198.03,348.37 L198.03,348.37 L211.29,348.37 C211.37,348.37 211.43,348.39 211.47,348.43 C211.51,348.47 211.52,348.515 211.5,348.565 C211.48,348.615 211.44,348.67 211.38,348.73 C210.24,349.87 208.975,350.99 207.585,352.09 C206.195,353.19 204.8,354.16 203.4,355 C201.56,353.76 199.7,352.48 197.82,351.16 L197.82,351.16 L195.81,351.16 C200.57,354.7 204.38,357.3 207.24,358.96 L207.24,358.96 L209.85,358.96 Z M223.86,340.33 L224.46,335.83 L244.71,335.83 C245.05,335.83 245.275,335.9 245.385,336.04 C245.495,336.18 245.52,336.42 245.46,336.76 L245.46,336.76 L244.95,340.33 L246.45,340.33 L247.02,336.34 C247.1,335.72 247.03,335.28 246.81,335.02 C246.59,334.76 246.15,334.63 245.49,334.63 L245.49,334.63 L235.74,334.63 C235.36,333.61 235.06,332.72 234.84,331.96 L234.84,331.96 L233.22,331.96 C233.5,332.9 233.8,333.79 234.12,334.63 L234.12,334.63 L223.14,334.63 L222.36,340.33 L223.86,340.33 Z M234.45,358.96 C234.85,356.1 235.39,352.12 236.07,347.02 C236.89,349.4 237.9,351.42 239.1,353.08 C240.3,354.74 242,356.3 244.2,357.76 L244.2,357.76 L245.13,356.41 C243.97,355.69 242.975,354.985 242.145,354.295 C241.315,353.605 240.595,352.865 239.985,352.075 C239.375,351.285 238.86,350.51 238.44,349.75 C239.48,349.21 240.42,348.585 241.26,347.875 C242.1,347.165 242.84,346.395 243.48,345.565 C244.12,344.735 244.66,343.84 245.1,342.88 L245.1,342.88 L243.54,342.88 C242.84,344.2 241.98,345.35 240.96,346.33 C239.94,347.31 238.9,348.05 237.84,348.55 C237.28,347.37 236.78,346.1 236.34,344.74 C236.42,344.08 236.365,343.65 236.175,343.45 C235.985,343.25 235.59,343.15 234.99,343.15 L234.99,343.15 L231,343.15 C232.38,342.13 233.45,341.1 234.21,340.06 L234.21,340.06 L242.91,340.06 L243.09,338.86 L226.08,338.86 L225.93,340.06 L232.59,340.06 C231.77,341 230.82,341.82 229.74,342.52 C228.66,343.22 227.69,343.76 226.83,344.14 C225.97,344.52 225.14,344.83 224.34,345.07 C223.54,345.31 222.76,345.5 222,345.64 L222,345.64 L221.58,347.11 C222.08,347.01 222.79,346.835 223.71,346.585 C224.63,346.335 225.575,346.01 226.545,345.61 C227.515,345.21 228.41,344.77 229.23,344.29 L229.23,344.29 L234.21,344.29 C234.43,344.29 234.605,344.325 234.735,344.395 C234.865,344.465 234.91,344.67 234.87,345.01 C234.71,346.33 234.505,347.92 234.255,349.78 C234.005,351.64 233.62,354.29 233.1,357.73 L233.1,357.73 L227.76,357.73 L228.12,358.96 L234.45,358.96 Z M221.19,352.09 C222.69,351.75 223.95,351.39 224.97,351.01 C225.99,350.63 226.92,350.215 227.76,349.765 C228.6,349.315 229.42,348.755 230.22,348.085 C231.02,347.415 231.71,346.67 232.29,345.85 L232.29,345.85 L230.67,345.85 C230.01,346.67 229.145,347.42 228.075,348.1 C227.005,348.78 225.905,349.315 224.775,349.705 C223.645,350.095 222.6,350.38 221.64,350.56 L221.64,350.56 L221.19,352.09 Z M219.48,357.58 C220.6,357.36 221.775,357.05 223.005,356.65 C224.235,356.25 225.355,355.78 226.365,355.24 C227.375,354.7 228.24,354.16 228.96,353.62 C229.68,353.08 230.32,352.51 230.88,351.91 C231.44,351.31 231.91,350.71 232.29,350.11 L232.29,350.11 L230.7,350.11 C229.72,351.43 228.225,352.64 226.215,353.74 C224.205,354.84 222.1,355.61 219.9,356.05 L219.9,356.05 L219.48,357.58 Z M249.45,362.5 L252.15,357.49 L252.75,354.13 L250.74,354.13 L250.14,357.49 L250.89,357.49 L248.28,361.99 L249.45,362.5 Z M279.72,358.96 C280.4,358.34 281.155,357.615 281.985,356.785 C282.815,355.955 283.64,355.035 284.46,354.025 C285.28,353.015 286.04,351.97 286.74,350.89 C287.44,349.81 288.08,348.67 288.66,347.47 C289.24,346.27 289.73,345.095 290.13,343.945 C290.53,342.795 290.86,341.76 291.12,340.84 L291.12,340.84 L301.86,340.84 C302.26,340.84 302.43,341.06 302.37,341.5 C301.97,344.56 301.525,347.61 301.035,350.65 C300.545,353.69 300.15,356.05 299.85,357.73 L299.85,357.73 L292.2,357.73 L292.59,358.96 L301.26,358.96 C301.72,356.28 302.21,353.2 302.73,349.72 C303.25,346.24 303.66,343.38 303.96,341.14 C304.04,340.6 303.965,340.215 303.735,339.985 C303.505,339.755 303.11,339.64 302.55,339.64 L302.55,339.64 L291.45,339.64 C292.07,337.14 292.56,334.58 292.92,331.96 L292.92,331.96 L291.42,331.96 C290.98,334.9 290.48,337.46 289.92,339.64 L289.92,339.64 L280.44,339.64 L280.74,340.84 L289.59,340.84 C288.79,343.62 287.82,346.04 286.68,348.1 C285.54,350.16 284.23,352.045 282.75,353.755 C281.27,355.465 279.51,357.2 277.47,358.96 L277.47,358.96 L279.72,358.96 Z M287.43,338.02 C287.01,337.42 286.485,336.63 285.855,335.65 C285.225,334.67 284.65,333.76 284.13,332.92 L284.13,332.92 L282.6,332.92 C282.78,333.2 283.165,333.83 283.755,334.81 C284.345,335.79 284.775,336.5 285.045,336.94 C285.315,337.38 285.55,337.74 285.75,338.02 L285.75,338.02 L287.43,338.02 Z M297.57,351.85 C296.05,348.95 294.8,346.45 293.82,344.35 L293.82,344.35 L292.32,344.35 C293.42,346.81 294.61,349.31 295.89,351.85 L295.89,351.85 L297.57,351.85 Z M311.67,349.72 L313.29,336.91 C313.97,336.19 314.595,335.405 315.165,334.555 C315.735,333.705 316.21,332.85 316.59,331.99 L316.59,331.99 L315.09,331.99 C314.43,333.33 313.57,334.575 312.51,335.725 C311.45,336.875 310.29,337.8 309.03,338.5 L309.03,338.5 L308.58,340.36 C309.68,339.84 310.71,339.19 311.67,338.41 L311.67,338.41 L310.17,349.72 L311.67,349.72 Z M315.84,340.3 C317.8,339 319.38,337.48 320.58,335.74 L320.58,335.74 L332.4,335.74 C332.58,335.74 332.675,335.78 332.685,335.86 C332.695,335.94 332.69,336.01 332.67,336.07 C332.49,337.01 332.18,338.23 331.74,339.73 L331.74,339.73 L333.21,339.73 C333.53,338.61 333.85,337.27 334.17,335.71 C334.25,335.27 334.225,334.97 334.095,334.81 C333.965,334.65 333.67,334.57 333.21,334.57 L333.21,334.57 L321.3,334.57 C321.74,333.79 322.12,332.93 322.44,331.99 L322.44,331.99 L320.97,331.99 C320.49,333.27 319.83,334.49 318.99,335.65 C318.15,336.81 317.19,337.79 316.11,338.59 L316.11,338.59 L315.84,340.3 Z M324.72,349.21 L326.22,337.51 L324.78,337.51 L323.4,348.01 L319.35,348.01 L319.65,349.21 L324.72,349.21 Z M316.41,348.16 C317.27,347.06 318.185,345.795 319.155,344.365 C320.125,342.935 321.01,341.52 321.81,340.12 L321.81,340.12 L320.31,340.12 C319.59,341.34 318.725,342.67 317.715,344.11 C316.705,345.55 315.68,346.9 314.64,348.16 L314.64,348.16 L316.41,348.16 Z M333.06,348.16 C331.8,345.5 330.65,342.82 329.61,340.12 L329.61,340.12 L328.23,340.12 C328.99,342.16 330.06,344.84 331.44,348.16 L331.44,348.16 L333.06,348.16 Z M324.3,355.27 C323.66,353.97 323.19,353 322.89,352.36 C322.59,351.72 322.28,351 321.96,350.2 L321.96,350.2 L320.55,350.2 C321.15,351.82 321.85,353.51 322.65,355.27 L322.65,355.27 L324.3,355.27 Z M327.3,358.96 L327.69,357.76 L315.54,357.76 L317.07,350.23 L315.6,350.23 L313.83,358.96 L327.3,358.96 Z M308.1,357.82 C309.6,355.84 311.08,353.59 312.54,351.07 L312.54,351.07 L310.98,351.07 C310.42,352.09 309.77,353.135 309.03,354.205 C308.29,355.275 307.4,356.48 306.36,357.82 L306.36,357.82 L308.1,357.82 Z M333.18,357.7 C332.08,356.1 331.265,354.87 330.735,354.01 C330.205,353.15 329.7,352.3 329.22,351.46 L329.22,351.46 L327.78,351.46 C328.44,352.68 329.045,353.755 329.595,354.685 C330.145,355.615 330.76,356.62 331.44,357.7 L331.44,357.7 L333.18,357.7 Z M360.54,358.96 C360.72,357.6 361.02,355.48 361.44,352.6 C361.86,349.72 362.215,347.205 362.505,345.055 C362.795,342.905 363.07,340.67 363.33,338.35 C363.39,337.83 363.375,337.445 363.285,337.195 C363.195,336.945 363,336.78 362.7,336.7 C362.4,336.62 362.06,336.58 361.68,336.58 L361.68,336.58 L355.41,336.58 C355.83,335.82 356.195,335.045 356.505,334.255 C356.815,333.465 357.06,332.7 357.24,331.96 L357.24,331.96 L355.71,331.96 C355.45,333.1 355.025,334.25 354.435,335.41 C353.845,336.57 353.18,337.605 352.44,338.515 C351.7,339.425 350.96,340.16 350.22,340.72 L350.22,340.72 L349.86,342.7 C351.66,341.48 353.25,339.86 354.63,337.84 L354.63,337.84 L361.02,337.84 C361.3,337.84 361.52,337.88 361.68,337.96 C361.84,338.04 361.89,338.29 361.83,338.71 C361.55,341.21 361.21,343.855 360.81,346.645 C360.41,349.435 359.86,353.1 359.16,357.64 L359.16,357.64 L352.47,357.64 L352.89,358.96 L360.54,358.96 Z M346.8,358.12 L349.32,338.44 C349.42,337.7 349.355,337.195 349.125,336.925 C348.895,336.655 348.4,336.52 347.64,336.52 L347.64,336.52 L345.06,336.52 C345.68,335.5 346.35,334.06 347.07,332.2 L347.07,332.2 L345.48,332.2 C345.24,332.92 344.935,333.69 344.565,334.51 C344.195,335.33 343.84,336 343.5,336.52 L343.5,336.52 L340.29,336.52 L337.29,358.12 L346.8,358.12 Z M346.89,346.06 L340.41,346.06 L341.55,337.69 L346.98,337.69 C347.36,337.69 347.61,337.76 347.73,337.9 C347.85,338.04 347.89,338.3 347.85,338.68 L347.85,338.68 L346.89,346.06 Z M356.37,351.64 C355.51,348.6 354.77,345.76 354.15,343.12 L354.15,343.12 L352.71,343.12 C353.11,345.02 353.8,347.86 354.78,351.64 L354.78,351.64 L356.37,351.64 Z M345.51,356.92 L338.91,356.92 L340.23,347.23 L346.74,347.23 L345.51,356.92 Z M365.34,355.18 C366.82,354.66 368.46,354.03 370.26,353.29 C372.06,352.55 373.65,351.86 375.03,351.22 L375.03,351.22 L375.24,349.69 C374.26,350.17 372.87,350.81 371.07,351.61 L371.07,351.61 L372.54,340.66 L375.99,340.66 L376.17,339.46 L372.69,339.46 L373.68,331.96 L372.27,331.96 L371.25,339.46 L367.59,339.46 L367.44,340.66 L371.1,340.66 L369.51,352.24 C367.77,352.92 366.44,353.41 365.52,353.71 L365.52,353.71 L365.34,355.18 Z M391.98,345.85 L393.15,337.72 C393.23,337.16 393.17,336.77 392.97,336.55 C392.77,336.33 392.38,336.22 391.8,336.22 L391.8,336.22 L388.44,336.22 C389.48,334.6 390.32,333.18 390.96,331.96 L390.96,331.96 L389.34,331.96 C388.6,333.4 387.77,334.82 386.85,336.22 L386.85,336.22 L378.03,336.22 L376.71,345.85 L391.98,345.85 Z M384.12,335.5 C383.24,333.86 382.62,332.68 382.26,331.96 L382.26,331.96 L380.7,331.96 C381.7,333.9 382.3,335.08 382.5,335.5 L382.5,335.5 L384.12,335.5 Z M383.88,344.8 L378.27,344.8 L379.23,337.27 L384.84,337.27 L383.88,344.8 Z M390.75,344.8 L385.2,344.8 L386.16,337.27 L391.2,337.27 C391.44,337.27 391.6,337.33 391.68,337.45 C391.76,337.57 391.79,337.75 391.77,337.99 L391.77,337.99 L390.75,344.8 Z M382.8,343.33 L381.51,338.74 L380.34,338.74 C380.5,339.32 380.735,340.19 381.045,341.35 C381.355,342.51 381.53,343.17 381.57,343.33 L381.57,343.33 L382.8,343.33 Z M388.05,343.33 C388.97,341.51 389.68,339.98 390.18,338.74 L390.18,338.74 L388.98,338.74 C388.48,339.98 387.74,341.51 386.76,343.33 L386.76,343.33 L388.05,343.33 Z M388.8,358.96 L390.06,349.57 C390.14,348.95 390.07,348.525 389.85,348.295 C389.63,348.065 389.19,347.95 388.53,347.95 L388.53,347.95 L378.12,347.95 L376.62,358.96 L388.8,358.96 Z M388.23,352.72 L378.9,352.72 L379.38,349.09 L388.05,349.09 C388.49,349.09 388.68,349.32 388.62,349.78 L388.62,349.78 L388.23,352.72 Z M387.54,357.73 L378.21,357.73 L378.75,353.83 L388.08,353.83 L387.54,357.73 Z M409.29,358.96 L409.77,357.61 L402.09,357.61 L403.83,344.89 L421.86,344.89 L422.07,343.63 L404.01,343.63 L405.6,331.96 L404.1,331.96 L402.45,343.63 L396.81,343.63 L396.6,344.89 L402.27,344.89 L400.29,358.96 L409.29,358.96 Z M409.47,341.5 C411.23,340.16 412.99,338.705 414.75,337.135 C416.51,335.565 418.03,334.07 419.31,332.65 L419.31,332.65 L417.48,332.65 C416.08,334.09 414.495,335.575 412.725,337.105 C410.955,338.635 409.12,340.1 407.22,341.5 L407.22,341.5 L409.47,341.5 Z M419.88,358.93 C418.2,356.99 416.53,354.95 414.87,352.81 C413.21,350.67 411.86,348.77 410.82,347.11 L410.82,347.11 L409.14,347.11 C410.38,349.11 411.78,351.16 413.34,353.26 C414.9,355.36 416.39,357.25 417.81,358.93 L417.81,358.93 L419.88,358.93 Z M428.1,358.96 L430.77,339.04 C432.39,336.78 433.56,334.42 434.28,331.96 L434.28,331.96 L432.72,331.96 C432.06,334.04 431.115,335.995 429.885,337.825 C428.655,339.655 427.24,341.2 425.64,342.46 L425.64,342.46 L425.31,344.44 C426.63,343.56 427.88,342.47 429.06,341.17 L429.06,341.17 L426.57,358.96 L428.1,358.96 Z M440.58,358.96 L442.2,347.26 L450.93,347.26 L451.08,346.09 L442.35,346.09 L442.95,341.77 L449.07,341.77 L450.03,334.9 C450.11,334.38 450.1,333.975 450,333.685 C449.9,333.395 449.71,333.2 449.43,333.1 C449.15,333 448.84,332.95 448.5,332.95 L448.5,332.95 L436.62,332.95 L435.33,341.77 L441.48,341.77 L440.85,346.09 L432.33,346.09 L432.15,347.26 L440.7,347.26 L439.02,358.96 L440.58,358.96 Z M447.78,340.6 L437.01,340.6 L437.91,334.12 L448.05,334.12 C448.29,334.12 448.455,334.19 448.545,334.33 C448.635,334.47 448.66,334.63 448.62,334.81 L448.62,334.81 L447.78,340.6 Z M432.63,357.82 C434.55,354.92 436.21,352.05 437.61,349.21 L437.61,349.21 L436.17,349.21 C435.47,350.57 434.635,352.035 433.665,353.605 C432.695,355.175 431.78,356.58 430.92,357.82 L430.92,357.82 L432.63,357.82 Z M449.46,357.82 C448.46,355.56 447.32,352.69 446.04,349.21 L446.04,349.21 L444.6,349.21 C444.74,349.59 445.205,350.87 445.995,353.05 C446.785,355.23 447.38,356.82 447.78,357.82 L447.78,357.82 L449.46,357.82 Z M457.32,342.01 C458.4,341.25 459.425,340.25 460.395,339.01 C461.365,337.77 462.07,336.52 462.51,335.26 L462.51,335.26 L466.26,335.26 C466.66,335.26 466.83,335.45 466.77,335.83 C466.55,337.69 466.35,339.19 466.17,340.33 L466.17,340.33 L462.03,340.33 L462.45,341.5 L467.4,341.5 C467.42,341.32 467.535,340.47 467.745,338.95 C467.955,337.43 468.08,336.46 468.12,336.04 C468.16,335.62 468.19,335.35 468.21,335.23 C468.25,334.77 468.175,334.465 467.985,334.315 C467.795,334.165 467.42,334.09 466.86,334.09 L466.86,334.09 L462.84,334.09 C463,333.25 463.09,332.54 463.11,331.96 L463.11,331.96 L461.76,331.96 C461.72,332.6 461.62,333.31 461.46,334.09 L461.46,334.09 L456.42,334.09 L456.72,335.26 L461.13,335.26 C460.87,335.9 460.485,336.62 459.975,337.42 C459.465,338.22 458.805,339.025 457.995,339.835 C457.185,340.645 456.3,341.37 455.34,342.01 L455.34,342.01 L457.32,342.01 Z M479.7,341.17 L480.6,334.39 C480.66,333.87 480.595,333.515 480.405,333.325 C480.215,333.135 479.83,333.04 479.25,333.04 L479.25,333.04 L471.39,333.04 L470.31,341.17 L479.7,341.17 Z M478.5,340.03 L471.84,340.03 L472.59,334.18 L478.62,334.18 C478.84,334.18 478.995,334.235 479.085,334.345 C479.175,334.455 479.21,334.63 479.19,334.87 L479.19,334.87 L478.5,340.03 Z M477.6,358.96 C478.06,356.28 478.47,353.76 478.83,351.4 C478.91,350.74 478.83,350.3 478.59,350.08 C478.35,349.86 477.9,349.75 477.24,349.75 L477.24,349.75 L474.66,349.75 L475.71,345.58 C475.87,344.9 475.94,344.45 475.92,344.23 C475.9,343.97 475.79,343.77 475.59,343.63 C475.39,343.49 474.95,343.42 474.27,343.42 L474.27,343.42 L456.54,343.42 L456.36,344.53 L473.61,344.53 C474.01,344.53 474.245,344.605 474.315,344.755 C474.385,344.905 474.39,345.07 474.33,345.25 L474.33,345.25 L473.16,349.75 L460.8,349.75 L462.03,346.36 L460.65,346.03 L458.94,350.86 L476.52,350.86 C476.94,350.86 477.195,350.935 477.285,351.085 C477.375,351.235 477.4,351.42 477.36,351.64 C477.16,353.08 476.81,355.14 476.31,357.82 L476.31,357.82 L469.05,357.82 L469.5,358.96 L477.6,358.96 Z M473.79,354.97 L474.03,353.83 L454.56,353.83 L454.89,354.97 L473.79,354.97 Z M487.8,358.96 L489.33,347.89 C490.91,347.37 492.3,346.9 493.5,346.48 L493.5,346.48 L493.68,345.13 C491.76,345.79 490.37,346.26 489.51,346.54 L489.51,346.54 L490.56,338.86 L494.25,338.86 L494.43,337.66 L490.74,337.66 L491.52,331.96 L490.08,331.96 L489.27,337.66 L485.04,337.66 L484.86,338.86 L489.12,338.86 L487.98,347.02 L483.36,348.43 L484.02,349.6 L487.77,348.4 L486.48,357.73 L482.67,357.73 L483.06,358.96 L487.8,358.96 Z M492.51,358.96 C493.41,357.36 494.235,355.475 494.985,353.305 C495.735,351.135 496.36,348.8 496.86,346.3 L496.86,346.3 L508.68,346.3 L509.85,337.75 C509.93,337.25 509.87,336.89 509.67,336.67 C509.47,336.45 509.09,336.34 508.53,336.34 L508.53,336.34 L504.15,336.34 C503.73,335.12 503.29,333.66 502.83,331.96 L502.83,331.96 L501.33,331.96 C501.53,332.78 501.95,334.24 502.59,336.34 L502.59,336.34 L496.74,336.34 C496.26,341.64 495.54,346.08 494.58,349.66 C493.62,353.24 492.38,356.34 490.86,358.96 L490.86,358.96 L492.51,358.96 Z M507.36,345.07 L497.1,345.07 C497.56,342.49 497.9,339.99 498.12,337.57 L498.12,337.57 L507.84,337.57 C508.24,337.57 508.41,337.75 508.35,338.11 L508.35,338.11 L507.36,345.07 Z M539.91,337.72 L540.09,336.49 L534.09,336.49 C533.51,334.67 533.09,333.17 532.83,331.99 L532.83,331.99 L531.36,331.99 C531.54,332.77 531.94,334.27 532.56,336.49 L532.56,336.49 L526.5,336.49 L526.29,337.72 L539.91,337.72 Z M512.79,358.96 C513.43,357.42 514.055,355.55 514.665,353.35 C515.275,351.15 515.78,348.92 516.18,346.66 L516.18,346.66 L522.06,346.66 L520.14,358.96 L521.52,358.96 L524.91,336.79 C524.95,336.47 524.955,336.175 524.925,335.905 C524.895,335.635 524.76,335.43 524.52,335.29 C524.28,335.15 523.91,335.08 523.41,335.08 L523.41,335.08 L521.1,335.08 C521.74,333.88 522.24,332.87 522.6,332.05 L522.6,332.05 L521.07,332.05 C520.75,332.85 520.26,333.86 519.6,335.08 L519.6,335.08 L516.57,335.08 C516.07,339.1 515.56,342.57 515.04,345.49 L515.04,345.49 L513.12,345.49 L512.91,346.66 L514.86,346.66 C514.44,348.92 513.92,351.115 513.3,353.245 C512.68,355.375 512.01,357.28 511.29,358.96 L511.29,358.96 L512.79,358.96 Z M522.24,345.49 L516.39,345.49 C516.87,342.65 517.32,339.56 517.74,336.22 L517.74,336.22 L522.72,336.22 C523.1,336.22 523.345,336.285 523.455,336.415 C523.565,336.545 523.58,336.83 523.5,337.27 L523.5,337.27 L522.24,345.49 Z M520.77,343.36 C520.51,341.68 520.31,339.98 520.17,338.26 L520.17,338.26 L519.06,338.26 C519.24,340.42 519.41,342.12 519.57,343.36 L519.57,343.36 L520.77,343.36 Z M525.21,358.96 C526.37,356.56 527.28,354.125 527.94,351.655 C528.6,349.185 529.14,346.36 529.56,343.18 L529.56,343.18 L534.3,343.18 C534.64,343.18 534.885,343.265 535.035,343.435 C535.185,343.605 535.24,343.87 535.2,344.23 L535.2,344.23 L533.1,358.96 L537.63,358.96 L538.11,357.73 L534.66,357.73 L536.58,344.05 C536.68,343.29 536.59,342.76 536.31,342.46 C536.03,342.16 535.51,342.01 534.75,342.01 L534.75,342.01 L528.36,342.01 C528.2,343.47 527.94,345.175 527.58,347.125 C527.22,349.075 526.7,351.12 526.02,353.26 C525.34,355.4 524.53,357.3 523.59,358.96 L523.59,358.96 L525.21,358.96 Z M519.15,354.7 C518.85,352.66 518.61,350.69 518.43,348.79 L518.43,348.79 L517.35,348.79 C517.43,349.83 517.62,351.8 517.92,354.7 L517.92,354.7 L519.15,354.7 Z" id="fzb_fbt"></path>
        </g>
    </g>
</svg>