<svg width="12" height="12" viewBox="0 0 12 12" fill="none" xmlns="http://www.w3.org/2000/svg">
<rect width="12" height="12"/>
<path d="M4.93318 5.1336L1.13317 3.5336C0.933164 3.46693 0.666504 3.60027 0.666504 3.86694V8.33359C0.666504 8.60026 0.79984 8.80025 0.999832 8.93359L4.79985 11.1336C5.06652 11.2003 5.33318 11.0003 5.33318 10.7336V5.80026C5.33318 5.5336 5.19984 5.26694 4.93318 5.1336ZM10.8665 3.5336L7.06652 5.1336C6.79986 5.26693 6.66653 5.5336 6.66653 5.80028V10.8003C6.66653 11.0669 6.93319 11.2003 7.19986 11.0669L10.9999 8.86693C11.1999 8.7336 11.3332 8.5336 11.3332 8.26693V3.86694C11.3332 3.60027 11.0665 3.46693 10.8665 3.5336ZM10.5332 2.3336L6.26652 0.733604C6.06652 0.666924 5.93318 0.666924 5.73318 0.733604L1.46652 2.33359C1.19985 2.46692 1.19985 2.86692 1.46652 2.93359L5.73318 4.53358C5.93318 4.66692 6.06652 4.66692 6.26652 4.60026L10.5332 3.00027C10.7998 2.86693 10.7998 2.46694 10.5332 2.3336Z" fill="#CBCFD8"/>
<path d="M4.93318 5.1336L1.13317 3.5336C0.933164 3.46693 0.666504 3.60027 0.666504 3.86694V8.33359C0.666504 8.60026 0.79984 8.80025 0.999832 8.93359L4.79985 11.1336C5.06652 11.2003 5.33318 11.0003 5.33318 10.7336V5.80026C5.33318 5.5336 5.19984 5.26694 4.93318 5.1336ZM10.5332 2.3336L6.26652 0.733604C6.06652 0.666924 5.93318 0.666924 5.73318 0.733604L1.46652 2.33359C1.19985 2.46692 1.19985 2.86692 1.46652 2.93359L5.73318 4.53358C5.93318 4.66692 6.06652 4.66692 6.26652 4.60026L10.5332 3.00027C10.7998 2.86693 10.7998 2.46694 10.5332 2.3336Z" fill="#94A1B9"/>
</svg>
