<?xml version="1.0" encoding="UTF-8"?>
<svg width="39px" height="38px" viewBox="0 0 39 38" version="1.1" xmlns="http://www.w3.org/2000/svg" xmlns:xlink="http://www.w3.org/1999/xlink">
    <!-- Generator: Sketch 53.2 (72643) - https://sketchapp.com -->
    <title>zuoyi_icon</title>
    <desc>Created with Sketch.</desc>
    <g id="zuoyi_icon" stroke="none" stroke-width="1" fill="none" fill-rule="evenodd">
        <path d="M23.3536658,19.0003664 L14.3283532,9.92673742 L14.328353,9.92673731 C13.8955774,9.49313161 13.8898693,8.78430263 14.3156044,8.34352556 C14.3198191,8.33916194 14.3240688,8.33483357 14.3283533,8.33054094 L14.3283533,8.33054089 C14.7686363,7.88981969 15.4744911,7.88981969 15.9147741,8.33054098 L24.9400867,17.4053945 L25.6264949,18.094716 C26.1245017,18.5958181 26.1245017,19.4061398 25.6264949,19.9060194 L24.9400867,20.5965633 L15.9147741,29.6689677 L15.9147741,29.6689676 C15.4747548,30.1103441 14.7683727,30.1103441 14.3283533,29.6689677 L14.3283533,29.6689676 C13.8959088,29.2359807 13.8899772,28.5279294 14.3151032,28.0874896 C14.3194821,28.0829529 14.323899,28.0784543 14.3283534,28.0739944 L23.3524636,19.0003655" id="路径" fill="#88B6FF" fill-rule="nonzero"></path>
        <rect id="矩形备份-27" stroke="#0053D9" fill="#88B6FF" opacity="0.280901228" x="0.5" y="0.5" width="38" height="37" rx="5"></rect>
    </g>
</svg>