<svg width="20" height="20" viewBox="0 0 20 20" fill="none" xmlns="http://www.w3.org/2000/svg">
<path d="M5.79374 14.6618H3.62884C3.28172 14.6618 3 14.3523 3 13.9709V6.61737C3 6.23597 3.28172 5.92642 3.62884 5.92642H5.79374C6.14086 5.92642 6.42258 6.23597 6.42258 6.61737V13.9709C6.42258 14.3523 6.14086 14.6618 5.79374 14.6618ZM11 14.6618H9.09167C8.67412 14.6618 8.33371 14.2896 8.33371 13.829V3.83282C8.33371 3.37403 8.67244 3 9.09167 3H11C11.4176 3 11.758 3.37219 11.758 3.83282V13.829C11.758 14.2896 11.4176 14.6618 11 14.6618ZM16.3072 14.5015H13.8522C13.5855 14.5015 13.3692 14.2638 13.3692 13.9709V9.87127C13.3692 9.57831 13.5855 9.34062 13.8522 9.34062H16.3072C16.5738 9.34062 16.7901 9.57831 16.7901 9.87127V13.9709C16.7901 14.2638 16.5738 14.5015 16.3072 14.5015Z" fill="#6E7A91"/>
<path d="M3.80058 17.0001H9.5H15.9338C16.3759 17.0001 16.7344 16.6417 16.7344 16.1995C16.7344 15.7574 16.3759 15.3989 15.9338 15.3989H3.80058C3.35843 15.3989 3 15.7574 3 16.1995C3 16.6417 3.35843 17.0001 3.80058 17.0001Z" fill="#6E7A91"/>
</svg>
