<svg width="20" height="20" viewBox="0 0 20 20" fill="none" xmlns="http://www.w3.org/2000/svg">
<path fill-rule="evenodd" clip-rule="evenodd" d="M3 4.5C3 3.67157 3.67157 3 4.5 3H15.5C16.3284 3 17 3.67157 17 4.5V12.7C17 13.5284 16.3284 14.2 15.5 14.2H4.5C3.67157 14.2 3 13.5284 3 12.7V4.5ZM4.63931 8.81107C4.24955 9.14841 4.20706 9.73783 4.54439 10.1276C4.88173 10.5173 5.47115 10.5598 5.86091 10.2225L8.07034 8.31023L10.511 10.5069C10.5372 10.5305 10.5643 10.5523 10.5923 10.5723C10.5983 10.5797 10.6045 10.5871 10.6108 10.5944C10.9481 10.9841 11.5376 11.0266 11.9273 10.6893L14.9936 8.03541C15.3834 7.69807 15.4259 7.10865 15.0885 6.71889C14.7512 6.32913 14.1618 6.28664 13.772 6.62398L11.3328 8.73515L8.76404 6.42321C8.42202 6.11537 7.91502 6.10709 7.56484 6.38142C7.44591 6.41849 7.33249 6.48011 7.23227 6.56685L4.63931 8.81107Z" fill="#2970FF"/>
<path d="M3 15.9333C3 15.4179 3.41787 15 3.93333 15H16.0667C16.5821 15 17 15.4179 17 15.9333V15.9333C17 16.4488 16.5821 16.8667 16.0667 16.8667H3.93333C3.41787 16.8667 3 16.4488 3 15.9333V15.9333Z" fill="#2970FF"/>
</svg>
