<svg width="20" height="20" viewBox="0 0 20 20" fill="none" xmlns="http://www.w3.org/2000/svg">
<path fill-rule="evenodd" clip-rule="evenodd" d="M3.63547 3H16.3547C16.7067 3 16.9902 3.39114 17 3.87669V16.1233C17 16.6089 16.7165 17 16.3645 17H11.4567H8.54329H3.63547C3.28352 17 3 16.6089 3 16.1233V3.87669C3 3.39114 3.28352 3 3.63547 3ZM15.1624 7.17601C14.7973 6.89158 14.2704 6.95909 13.9888 7.32636L11.8635 10.0983L8.58526 8.09742C8.19452 7.85893 7.68456 7.98024 7.44306 8.36913C7.43015 8.38994 7.41825 8.41109 7.40738 8.43252L4.85225 11.765C4.57371 12.1283 4.64032 12.6483 5.00144 12.9296C5.36652 13.214 5.89342 13.1465 6.17502 12.7793L8.36877 9.91806L11.3039 11.7095C11.3547 11.7919 11.4207 11.8667 11.5014 11.9296C11.8665 12.214 12.3934 12.1465 12.675 11.7793L15.3115 8.34056C15.5901 7.97728 15.5235 7.45734 15.1624 7.17601Z" fill="#6E7A91"/>
</svg>
