<svg xmlns="http://www.w3.org/2000/svg" width="32" height="32" viewBox="0 0 24 24"><path fill="currentColor" fill-rule="evenodd" d="M7.345 4.017a42.253 42.253 0 0 1 9.31 0c1.713.192 3.095 1.541 3.296 3.26a40.66 40.66 0 0 1 0 9.445a3.734 3.734 0 0 1-3.296 3.26a42.123 42.123 0 0 1-9.31 0a3.734 3.734 0 0 1-3.296-3.26a40.652 40.652 0 0 1 0-9.444a3.734 3.734 0 0 1 3.295-3.26ZM12 7.007a.75.75 0 0 1 .75.75v3.493h3.493a.75.75 0 1 1 0 1.5H12.75v3.493a.75.75 0 0 1-1.5 0V12.75H7.757a.75.75 0 0 1 0-1.5h3.493V7.757a.75.75 0 0 1 .75-.75Z" clip-rule="evenodd"/></svg>