<svg width="21" height="21" viewBox="0 0 21 21" fill="none" xmlns="http://www.w3.org/2000/svg">
 <path d="M14.4069 4.04598C13.1579 3.24576 11.6996 2.83388 10.2165 2.86244C8.73345 2.89099 7.29213 3.35868 6.07486 4.20638C4.85758 5.05408 3.91901 6.2437 3.37783 7.62482C2.83666 9.00594 2.71719 10.5165 3.03452 11.9655C3.35186 13.4146 4.09176 14.7369 5.16064 15.7654C6.22953 16.794 7.5794 17.4824 9.03956 17.7437C10.4997 18.0051 12.0046 17.8275 13.3638 17.2336C14.7231 16.6397 15.8757 15.656 16.676 14.407C17.7466 12.7315 18.109 10.6997 17.6837 8.75735C17.2583 6.81498 16.0798 5.12063 14.4069 4.04598V4.04598Z" fill="#9AABC6"></path>
  <path d="M11.2038 10.4007L13.36 12.766C13.4665 12.8827 13.5222 13.0369 13.5149 13.1948C13.5076 13.3526 13.4379 13.501 13.3211 13.6074C13.2044 13.7139 13.0501 13.7696 12.8923 13.7623C12.7345 13.755 12.5861 13.6853 12.4796 13.5685L10.3234 11.2033L9.52085 10.3229L7.36465 7.95763C7.25822 7.84088 7.20252 7.68664 7.20982 7.52883C7.21711 7.37102 7.2868 7.22257 7.40355 7.11614C7.5203 7.00971 7.67454 6.95402 7.83235 6.96131C7.99017 6.96861 8.13861 7.0383 8.24504 7.15504L10.4013 9.5203L11.2038 10.4007Z" fill="white"></path>
  <path d="M10.3624 11.2042L8.09928 13.4674C7.98757 13.5791 7.83606 13.6418 7.67808 13.6418C7.5201 13.6418 7.3686 13.5791 7.25689 13.4674C7.14518 13.3557 7.08242 13.2042 7.08242 13.0462C7.08242 12.8882 7.14518 12.7367 7.25689 12.625L9.52003 10.3618L10.3624 9.51944L12.6256 7.25629C12.7373 7.14459 12.8888 7.08183 13.0468 7.08183C13.2047 7.08183 13.3563 7.14459 13.468 7.25629C13.5797 7.368 13.6424 7.51951 13.6424 7.67749C13.6424 7.83547 13.5797 7.98698 13.468 8.09869L11.2048 10.3618L10.3624 11.2042Z" fill="white"></path> 
</svg>
