<svg width="17" height="19" viewBox="0 0 17 19" fill="none" xmlns="http://www.w3.org/2000/svg">
<path fill-rule="evenodd" clip-rule="evenodd" d="M9.725 0H2C0.895431 0 0 0.895431 0 2V17C0 18.1046 0.89543 19 2 19H15C16.1046 19 17 18.1046 17 17V6.32609L9.725 0Z" fill="#0E73FF"/>
<g clip-path="url(#clip0_5781_3920)">
<path d="M10.4481 10.6248C10.3448 10.5661 10.2225 10.5506 10.1079 10.5817C9.99319 10.6129 9.8955 10.6881 9.83609 10.791C9.77669 10.8939 9.76039 11.0161 9.79076 11.1309C9.82113 11.2458 9.89569 11.344 9.99819 11.4041L11.069 12.0223C10.5126 12.5884 9.78469 12.9547 8.99853 13.0644C8.21237 13.1741 7.41201 13.0209 6.72191 12.6287C6.03181 12.2364 5.49064 11.6272 5.18258 10.8956C4.87452 10.1641 4.81682 9.35124 5.01846 8.58351L4.14787 8.3545C3.6426 10.2689 4.45336 12.3588 6.25035 13.3963C8.40232 14.639 11.154 13.9016 12.3963 11.7496L10.4481 10.6248V10.6248ZM10.7496 5.60368C8.59758 4.361 5.84587 5.09842 4.60364 7.25039L6.55179 8.3752C6.65508 8.43392 6.77739 8.44941 6.89205 8.41828C7.00671 8.38715 7.1044 8.31193 7.16381 8.20904C7.22321 8.10615 7.23951 7.98394 7.20914 7.86907C7.17878 7.75421 7.10421 7.65602 7.00171 7.59593L5.9309 6.97774C6.48733 6.41165 7.21521 6.04528 8.00137 5.93561C8.78753 5.82595 9.58789 5.97913 10.278 6.37134C10.9681 6.76355 11.5093 7.37281 11.8173 8.10436C12.1254 8.83591 12.1831 9.64876 11.9814 10.4165L12.852 10.6455C13.3573 8.73109 12.5465 6.6412 10.7496 5.60368V5.60368Z" fill="white"/>
</g>
<defs>
<clipPath id="clip0_5781_3920">
<rect width="9" height="9" fill="white" transform="translate(4 5)"/>
</clipPath>
</defs>
</svg>
