<svg width="34" height="33" viewBox="0 0 34 33" fill="none" xmlns="http://www.w3.org/2000/svg">
<path d="M3.36918 32.2049H29.6307C30.0037 32.2049 30.307 31.9048 30.307 31.5317V30.2138C30.307 29.8367 30.0037 29.5406 29.6307 29.5406H3.36918C2.99619 29.5406 2.69287 29.8407 2.69287 30.2138V31.5317C2.69697 31.9089 3.00029 32.2049 3.36918 32.2049Z" fill="url(#paint0_linear)"/>
<path d="M1.35262 2C0.606631 2 0 2.59611 0 3.3301V25.9791C0 26.709 0.606631 27.3092 1.35262 27.3092H31.6474C32.3934 27.3092 33 26.7131 33 25.9791V3.33416C33 2.60017 32.3934 2 31.6515 2H1.35262Z" fill="#135BF9"/>
<path fill-rule="evenodd" clip-rule="evenodd" d="M27.3859 18.8994H24.7302C24.3478 18.8988 23.9973 18.6888 23.8198 18.3538L19.4405 10.1226L14.8114 21.6486C14.6584 22.0309 14.2881 22.2847 13.8725 22.292H13.8557C13.4469 22.2921 13.0769 22.0524 12.9135 21.6818L10.3265 15.7969L9.40432 18.2527C9.25491 18.6514 8.87028 18.9161 8.44028 18.9159H5.75771C5.18917 18.9159 4.72827 18.4601 4.72827 17.8978C4.72827 17.3355 5.18917 16.8797 5.75771 16.8797H7.71766L9.27858 12.7176C9.42503 12.328 9.79598 12.0652 10.2161 12.0536C10.6363 12.0419 11.0216 12.2836 11.1899 12.6646L13.8088 18.6191L18.3507 7.31194C18.4986 6.94225 18.8512 6.69206 19.2527 6.67188C19.654 6.65252 20.0307 6.86364 20.2201 7.21411L25.3472 16.8714H27.3809C27.9494 16.8714 28.4103 17.3272 28.4103 17.8895C28.4103 18.4518 27.9494 18.9076 27.3809 18.9076L27.3859 18.8994Z" fill="white"/>
<g opacity="0.576753" filter="url(#filter0_f)">
<path fill-rule="evenodd" clip-rule="evenodd" d="M25.0146 3.44922H31.1006V15.3794H25.0146L25.0146 3.44922Z" fill="url(#paint1_linear)"/>
</g>
<defs>
<filter id="filter0_f" x="22.2964" y="0.730937" width="11.5225" height="17.3667" filterUnits="userSpaceOnUse" color-interpolation-filters="sRGB">
<feFlood flood-opacity="0" result="BackgroundImageFix"/>
<feBlend mode="normal" in="SourceGraphic" in2="BackgroundImageFix" result="shape"/>
<feGaussianBlur stdDeviation="1.35914" result="effect1_foregroundBlur"/>
</filter>
<linearGradient id="paint0_linear" x1="2.69287" y1="29.5406" x2="2.69287" y2="32.2049" gradientUnits="userSpaceOnUse">
<stop stop-color="#B8CAF9"/>
<stop offset="0.750472" stop-color="#FEFFFF"/>
<stop offset="1" stop-color="#CADAF9"/>
</linearGradient>
<linearGradient id="paint1_linear" x1="25.0146" y1="3.44922" x2="25.0146" y2="15.3794" gradientUnits="userSpaceOnUse">
<stop stop-color="#C0D0F8"/>
<stop offset="1" stop-color="#135BF9"/>
</linearGradient>
</defs>
</svg>
