<svg xmlns="http://www.w3.org/2000/svg" width="13" height="13" viewBox="0 0 13 13">
  <path fill-rule="evenodd" clip-rule="evenodd" d="M6.55475 9.83563C5.64871 9.78745 4.80648 9.4823 4.10331 8.99174C4.01462 8.92987 3.92815 8.86505 3.84404 8.79742C2.77824 7.94051 2.0918 6.6331 2.0918 5.16727C2.0918 2.58368 4.22429 0.492188 6.80789 0.492188C9.39149 0.492188 11.524 2.58368 11.524 5.16727C11.524 6.6331 10.8375 7.94051 9.77174 8.79742C9.68763 8.86505 9.60115 8.92987 9.51247 8.99174C8.80929 9.4823 7.96707 9.78745 7.06103 9.83563C6.97718 9.84009 6.89278 9.84235 6.80789 9.84235C6.723 9.84235 6.6386 9.84009 6.55475 9.83563ZM6.80789 10.7035L3.85521 12.754V9.84235L6.80789 10.7035ZM9.76056 9.84235V12.754L6.80789 10.7035L9.76056 9.84235ZM6.80789 1.49219C4.76518 1.49219 3.0918 3.14728 3.0918 5.16727C3.0918 7.18726 4.76518 8.84235 6.80789 8.84235C8.8506 8.84235 10.524 7.18726 10.524 5.16727C10.524 3.14729 8.85059 1.49219 6.80789 1.49219Z" fill="#7B889C"></path>
</svg>