<svg width="12" height="12" viewBox="0 0 12 12" fill="none" xmlns="http://www.w3.org/2000/svg">
<path d="M6 11.5C4.9122 11.5 3.84883 11.1774 2.94436 10.5731C2.03989 9.96873 1.33495 9.10975 0.918665 8.10476C0.502383 7.09976 0.393465 5.9939 0.605683 4.927C0.817902 3.86011 1.34173 2.8801 2.11091 2.11091C2.8801 1.34173 3.86011 0.817902 4.927 0.605683C5.9939 0.393465 7.09976 0.502383 8.10476 0.918665C9.10975 1.33495 9.96873 2.03989 10.5731 2.94436C11.1774 3.84883 11.5 4.9122 11.5 6C11.4984 7.45819 10.9184 8.85618 9.88727 9.88727C8.85618 10.9184 7.45819 11.4984 6 11.5ZM5.49469 6.58575C5.49951 6.71663 5.5549 6.84054 5.6492 6.93143C5.7435 7.02232 5.86937 7.0731 6.00034 7.0731C6.13131 7.0731 6.25718 7.02232 6.35148 6.93143C6.44578 6.84054 6.50117 6.71663 6.506 6.58575L6.66962 3.3215C6.67336 3.29163 6.67474 3.26152 6.67375 3.23144V3.22662C6.65401 3.06181 6.57455 2.90994 6.45039 2.79976C6.32623 2.68958 6.16599 2.62874 6 2.62874C5.834 2.62874 5.67376 2.68958 5.54961 2.79976C5.42545 2.90994 5.34598 3.06181 5.32625 3.22662V3.23144C5.32543 3.262 5.32704 3.29257 5.33106 3.32288L5.49469 6.58575ZM5.32625 8.66268C5.31924 8.79754 5.35283 8.93141 5.42268 9.04698C5.49253 9.16255 5.59544 9.25451 5.7181 9.31099C5.84077 9.36747 5.97755 9.38586 6.11078 9.3638C6.244 9.34173 6.36755 9.28022 6.46545 9.18721C6.56336 9.0942 6.63112 8.97397 6.65998 8.84205C6.68885 8.71013 6.67749 8.57258 6.62737 8.44719C6.57725 8.32179 6.49068 8.21431 6.37884 8.13862C6.267 8.06294 6.13504 8.02253 6 8.02262C5.82579 8.01819 5.65694 8.08313 5.5306 8.20315C5.40425 8.32318 5.33075 8.48847 5.32625 8.66268Z" fill="#F4AB61"/>
</svg>
